<svg width="252" height="344" viewBox="0 0 252 344" fill="none" xmlns="http://www.w3.org/2000/svg">
<g filter="url(#filter0_d_7387_19891)">
<rect x="8" y="4" width="236" height="328" rx="8" fill="#242424"/>
<path d="M38.5508 33.0234V39.8398H41.0703V41.8906H38.5508V50.7578H36.0508V33.0234H38.5508ZM33.8047 34.8398C33.7852 40.1523 31.7148 44.7617 25.7383 47.6914L24.332 45.7773C28.541 43.668 30.7969 40.8359 31.2656 36.8711H25.3477V34.8398H33.8047ZM51.4102 34.2148V36.207H47.875C47.8945 38.2773 49.1348 40.2793 51.9766 41.1094L50.7852 43.0625C48.8223 42.4668 47.4648 41.2754 46.6836 39.7422C45.8926 41.5391 44.4473 42.9648 42.3086 43.668L41.0391 41.6953C43.9883 40.7676 45.3164 38.4629 45.3555 36.207H41.7227V34.2148H51.4102ZM55.4141 33.0234V37.1445H57.8164V39.1758H55.4141V43.5703H52.9141V33.0234H55.4141ZM49.5938 43.9219C53.2852 43.9023 55.5898 45.1719 55.5898 47.3398C55.5898 49.5078 53.2852 50.7969 49.5938 50.7969C45.8242 50.7969 43.5 49.5078 43.5 47.3398C43.5 45.1719 45.8242 43.9023 49.5938 43.9219ZM49.5938 45.8555C47.25 45.8555 45.9805 46.3438 46 47.3398C45.9805 48.3555 47.25 48.8633 49.5938 48.8633C51.8984 48.8633 53.1289 48.3555 53.1289 47.3398C53.1289 46.3438 51.8984 45.8555 49.5938 45.8555ZM76.3086 33.0234V36.7539H78.7109V38.8047H76.3086V41.8906H73.8086V33.0234H76.3086ZM71.2695 34.1367V41.5391H62.7344V34.1367H71.2695ZM65.1953 36.0703V39.5859H68.8086V36.0703H65.1953ZM66.2305 43.375V48.2969C67.2168 48.2383 68.1445 48.0918 69.0625 47.7891L69.4141 49.7227C67.9102 50.2695 66.4844 50.3281 64.7852 50.3281H63.8086V43.375H66.2305ZM77.7539 43.5508V45.3477H68.8086V43.5508H72.0898V42.2617H74.5117V43.5508H77.7539ZM73.2617 45.7969C75.293 45.7969 76.7188 46.7539 76.7188 48.2969C76.7188 49.8203 75.293 50.7773 73.2617 50.7773C71.2109 50.7773 69.8242 49.8203 69.8438 48.2969C69.8242 46.7539 71.2109 45.7969 73.2617 45.7969ZM73.2617 47.4766C72.5586 47.4766 72.0312 47.75 72.0508 48.2969C72.0312 48.8438 72.5586 49.1172 73.2617 49.1172C73.9648 49.1172 74.4922 48.8438 74.4922 48.2969C74.4922 47.75 73.9648 47.4766 73.2617 47.4766ZM95.2031 42.1055V44.0977H78.9922V42.1055H95.2031ZM93.3672 48.4922V50.4844H80.9453V45.2891H83.4453V48.4922H93.3672ZM87.0977 33.5703C90.9844 33.5508 93.543 34.9375 93.5625 37.2031C93.543 39.4688 90.9844 40.875 87.0977 40.875C83.1719 40.875 80.6133 39.4688 80.6133 37.2031C80.6133 34.9375 83.1719 33.5508 87.0977 33.5703ZM87.0977 35.5234C84.6367 35.543 83.1914 36.1289 83.2109 37.2031C83.1914 38.3164 84.6367 38.8633 87.0977 38.8633C89.5586 38.8633 90.9844 38.3164 90.9844 37.2031C90.9844 36.1289 89.5586 35.543 87.0977 35.5234ZM114.867 33.0234V46.1094H112.387V41.7344H110.121V39.6836H112.387V38.1406H110.121V36.1484H112.387V33.0234H114.867ZM109.809 34.293V36.2852H108.344V41.6758C108.939 41.6367 109.525 41.5781 110.082 41.5195L110.18 43.3359C106.859 43.8828 102.953 43.9609 100.141 43.9609L99.8867 41.9297L101.781 41.9102V36.2852H100.336V34.293H109.809ZM115.297 48.4922V50.4844H103.051V45.1328H105.551V48.4922H115.297ZM104.184 41.8711L105.961 41.8125V36.2852H104.184V41.8711ZM127.18 34V35.9922H123.625C123.742 37.8672 125.08 39.7422 127.863 40.5039L126.613 42.4375C124.582 41.8613 123.156 40.6406 122.355 39.0781C121.545 40.7676 120.09 42.1055 117.98 42.75L116.73 40.7969C119.562 39.9766 120.939 38.0039 121.066 35.9922H117.414V34H127.18ZM131.555 33.0234V42.6719H129.055V33.0234H131.555ZM122.121 43.4141V45.0742H129.074V43.4141H131.555V50.6016H119.66V43.4141H122.121ZM122.121 48.6094H129.074V47.0078H122.121V48.6094ZM149.863 35.0156V37.0273H147.559V38.6484H149.863V40.6797H147.559V42.8086H145.059V33.0234H147.559V35.0156H149.863ZM140.02 35.1719C140 37.3789 141.309 39.5469 144.102 40.4648L142.773 42.3984C140.898 41.7539 139.59 40.5137 138.828 38.9414C138.047 40.7188 136.631 42.1152 134.57 42.8281L133.223 40.8359C136.211 39.8789 137.5 37.5938 137.52 35.1914V33.8242H140.02V35.1719ZM138.379 43.5703V45.1523H145.059V43.5703H147.559V50.6016H135.879V43.5703H138.379ZM138.379 48.6094H145.059V47.0664H138.379V48.6094ZM165.125 33.0234V50.8359H162.605V33.0234H165.125ZM155.477 34.2734C158.152 34.2734 160.145 36.7344 160.145 40.6016C160.145 44.5078 158.152 46.9492 155.477 46.9492C152.742 46.9492 150.75 44.5078 150.77 40.6016C150.75 36.7344 152.742 34.2734 155.477 34.2734ZM155.477 36.5195C154.09 36.5195 153.172 37.9648 153.172 40.6016C153.172 43.2578 154.09 44.6836 155.477 44.6836C156.824 44.6836 157.742 43.2578 157.742 40.6016C157.742 37.9648 156.824 36.5195 155.477 36.5195ZM30.9922 72.4297C30.9922 73.8652 31.5879 75.3398 33.043 76.3164C34.5078 75.2812 35.1523 73.748 35.1523 72.4297V71.8242H37.6133V72.4297C37.5938 74.2852 38.5898 76.0039 40.9531 76.7266L39.7422 78.543C38.043 77.9668 36.9297 76.8828 36.3242 75.5156C35.7285 76.8828 34.6934 78.0742 33.1016 78.6992C31.4219 78.0938 30.377 76.9414 29.8008 75.5742C29.1758 76.9023 28.082 77.9766 26.4609 78.543L25.2305 76.7266C27.5742 75.9258 28.5508 74.168 28.5703 72.4297V71.8242H30.9922V72.4297ZM39.4102 61.043V71.082H36.9102V61.043H39.4102ZM29.6641 61.9414C32.4375 61.9414 34.5273 63.6992 34.5273 66.2188C34.5273 68.6992 32.4375 70.457 29.6641 70.457C26.8906 70.457 24.8008 68.6992 24.8008 66.2188C24.8008 63.6992 26.8906 61.9414 29.6641 61.9414ZM29.6641 64.0312C28.2383 64.0312 27.2227 64.8516 27.2422 66.2188C27.2227 67.5664 28.2383 68.3867 29.6641 68.3867C31.0508 68.3867 32.0664 67.5664 32.0664 66.2188C32.0664 64.8516 31.0508 64.0312 29.6641 64.0312ZM55.7461 65.8672V67.8203H43.3242V61.6484H45.8047V65.8672H55.7461ZM57.5625 69.7344V71.6875H41.293V69.7344H57.5625ZM55.8633 76.4141V78.4062H43.168V73.1328H45.668V76.4141H55.8633ZM72.7539 62.7227V64.6953H62.207V62.7227H66.25V60.9453H68.7305V62.7227H72.7539ZM67.4805 65.2617C70.0586 65.2812 71.8555 66.6289 71.8555 68.5625C71.8555 70.5156 70.0586 71.8438 67.4805 71.8438C64.9023 71.8438 63.0664 70.5156 63.0664 68.5625C63.0664 66.6289 64.9023 65.2812 67.4805 65.2617ZM67.4805 67.1758C66.2891 67.1758 65.4883 67.6445 65.5078 68.5625C65.4883 69.4805 66.2891 69.9297 67.4805 69.9297C68.6719 69.9297 69.4922 69.4805 69.4922 68.5625C69.4922 67.6445 68.6719 67.1758 67.4805 67.1758ZM76.3086 61.0234V65.7891H78.7109V67.8398H76.3086V73.4648H73.8086V61.0234H76.3086ZM71.8359 72.7617C71.8359 74.5781 73.7109 76.375 77.5 76.8438L76.6211 78.7188C73.7793 78.3477 71.6992 77.2148 70.625 75.6328C69.541 77.2148 67.4902 78.3477 64.6484 78.7188L63.7695 76.8438C67.5195 76.375 69.375 74.5781 69.375 72.7617V72.5078H71.8359V72.7617ZM93.7578 61.5117V63.3672H91.4336V65.7109H93.6406V67.5664H80.5352V65.7109H82.7227V63.3672H80.418V61.5117H93.7578ZM95.2031 68.5039V70.457H78.9922V68.5039H95.2031ZM93.2305 71.4727V75.8672H83.3281V76.8438H93.6992V78.6797H80.8867V74.168H90.7695V73.2695H80.8672V71.4727H93.2305ZM85.2227 65.7109H88.9336V63.3672H85.2227V65.7109ZM102.574 62.8008V69.5391H98.668V72.5664C100.396 72.5469 102.037 72.4688 103.883 72.1172L104.098 74.1484C101.773 74.5781 99.7812 74.6172 97.5352 74.6367H96.2852V67.5664H100.172V64.7734H96.2656V62.8008H102.574ZM111.148 61.0234V78.7969H108.785V61.0234H111.148ZM107.457 61.3555V77.9375H105.133V69.1094H103.316V67.0977H105.133V61.3555H107.457ZM127.445 61.0234V78.8359H124.926V61.0234H127.445ZM117.797 62.2734C120.473 62.2734 122.465 64.7344 122.465 68.6016C122.465 72.5078 120.473 74.9492 117.797 74.9492C115.062 74.9492 113.07 72.5078 113.09 68.6016C113.07 64.7344 115.062 62.2734 117.797 62.2734ZM117.797 64.5195C116.41 64.5195 115.492 65.9648 115.492 68.6016C115.492 71.2578 116.41 72.6836 117.797 72.6836C119.145 72.6836 120.062 71.2578 120.062 68.6016C120.062 65.9648 119.145 64.5195 117.797 64.5195ZM138.703 63.3672C138.703 65.9648 141.008 68.7578 145.031 69.4414L143.938 71.5117C140.842 70.8965 138.537 69.1582 137.395 66.8633C136.213 69.1387 133.908 70.8867 130.832 71.5117L129.758 69.4414C133.703 68.7383 136.027 65.9453 136.047 63.3672V62.0781H138.703V63.3672ZM145.617 74.5586V76.6094H129.348V74.5586H145.617ZM160.566 65.8672V67.8203H148.145V61.6484H150.625V65.8672H160.566ZM162.383 69.7344V71.6875H146.113V69.7344H162.383ZM160.684 76.4141V78.4062H147.988V73.1328H150.488V76.4141H160.684ZM170.133 72.5469C170.152 70.125 170.797 69.3633 171.969 68.6406C172.809 68.0938 173.453 67.4883 173.453 66.5898C173.453 65.6133 172.691 64.9688 171.754 64.9688C170.836 64.9688 169.996 65.5742 169.957 66.7266H167.184C167.242 63.9727 169.273 62.6641 171.773 62.6641C174.488 62.6641 176.422 64.0898 176.422 66.4922C176.422 68.0938 175.602 69.1289 174.312 69.8906C173.219 70.5547 172.73 71.1797 172.711 72.5469V72.7617H170.133V72.5469ZM171.48 77.1758C170.562 77.1758 169.82 76.4336 169.84 75.5352C169.82 74.6367 170.562 73.9141 171.48 73.9141C172.34 73.9141 173.102 74.6367 173.102 75.5352C173.102 76.4336 172.34 77.1758 171.48 77.1758Z" fill="white"/>
<mask id="mask0_7387_19891" style="mask-type:alpha" maskUnits="userSpaceOnUse" x="24" y="108" width="20" height="20">
<rect x="24" y="108" width="20" height="20" fill="#D9D9D9"/>
</mask>
<g mask="url(#mask0_7387_19891)">
<path d="M41.3036 117.144V123.785C41.3036 124.206 41.1578 124.562 40.8661 124.854C40.5744 125.146 40.2182 125.292 39.7973 125.292H28.2267C27.8059 125.292 27.4496 125.146 27.158 124.854C26.8663 124.562 26.7205 124.206 26.7205 123.785V117.128C26.3849 116.852 26.133 116.495 25.9648 116.055C25.7965 115.616 25.793 115.141 25.9544 114.631L26.7973 111.878C26.9085 111.528 27.097 111.245 27.363 111.03C27.6291 110.816 27.9469 110.708 28.3165 110.708H39.6915C40.0612 110.708 40.3769 110.811 40.6386 111.016C40.9004 111.221 41.0911 111.503 41.2107 111.862L42.0696 114.631C42.231 115.141 42.2276 115.614 42.0592 116.05C41.891 116.487 41.6392 116.851 41.3036 117.144ZM35.8455 116.542C36.3006 116.542 36.6428 116.402 36.8719 116.124C37.1011 115.846 37.1948 115.547 37.1532 115.227L36.6467 111.958H34.6369V115.25C34.6369 115.6 34.7555 115.903 34.9928 116.159C35.23 116.414 35.5142 116.542 35.8455 116.542ZM32.0955 116.542C32.4789 116.542 32.7901 116.414 33.0288 116.159C33.2677 115.903 33.3871 115.6 33.3871 115.25V111.958H31.3773L30.8711 115.26C30.8261 115.555 30.919 115.843 31.1498 116.123C31.3807 116.402 31.6959 116.542 32.0955 116.542ZM28.3871 116.542C28.6959 116.542 28.9614 116.434 29.1836 116.219C29.4058 116.003 29.5431 115.733 29.5955 115.407L30.0857 111.958H28.3165C28.2257 111.958 28.1536 111.978 28.1003 112.018C28.0468 112.058 28.0067 112.119 27.9801 112.199L27.1786 114.91C27.0686 115.268 27.1205 115.629 27.3342 115.994C27.5478 116.359 27.8988 116.542 28.3871 116.542ZM39.6371 116.542C40.088 116.542 40.433 116.365 40.6723 116.01C40.9117 115.656 40.9694 115.289 40.8455 114.91L40.0023 112.183C39.9757 112.102 39.9357 112.045 39.8823 112.01C39.8289 111.976 39.7567 111.958 39.6659 111.958H37.9384L38.4286 115.407C38.481 115.733 38.6183 116.003 38.8405 116.219C39.0627 116.434 39.3283 116.542 39.6371 116.542ZM28.2267 124.042H39.7973C39.8721 124.042 39.9335 124.018 39.9815 123.97C40.0297 123.921 40.0538 123.86 40.0538 123.785V117.718C39.963 117.751 39.8871 117.772 39.8261 117.78C39.7653 117.788 39.7023 117.792 39.6371 117.792C39.2621 117.792 38.9323 117.724 38.6476 117.588C38.3628 117.452 38.0869 117.235 37.8196 116.936C37.5858 117.196 37.3091 117.404 36.9896 117.559C36.6702 117.714 36.3059 117.792 35.8967 117.792C35.5431 117.792 35.2098 117.718 34.8967 117.571C34.5837 117.424 34.2888 117.213 34.0121 116.936C33.7546 117.213 33.463 117.424 33.1371 117.571C32.8112 117.718 32.481 117.792 32.1467 117.792C31.7706 117.792 31.418 117.723 31.089 117.587C30.76 117.451 30.4705 117.234 30.2205 116.936C29.8699 117.286 29.5469 117.516 29.2515 117.627C28.9562 117.737 28.6681 117.792 28.3871 117.792C28.3219 117.792 28.2545 117.788 28.1851 117.78C28.1156 117.772 28.044 117.751 27.9703 117.718V123.785C27.9703 123.86 27.9944 123.921 28.0426 123.97C28.0906 124.018 28.152 124.042 28.2267 124.042Z" fill="#05FFF7"/>
</g>
<rect x="52.5" y="114.5" width="143" height="7" rx="3.5" stroke="#05FFF7"/>
<path d="M210.029 120.375C212.791 120.389 214.35 121.072 214.363 122.33C214.35 123.602 212.791 124.258 210.029 124.258C207.24 124.258 205.668 123.602 205.668 122.33C205.668 121.072 207.24 120.389 210.029 120.375ZM210.029 121.646C208.266 121.646 207.459 121.865 207.459 122.33C207.459 122.809 208.266 123 210.029 122.986C211.779 123 212.586 122.809 212.6 122.33C212.586 121.865 211.779 121.646 210.029 121.646ZM215.129 112.705V114.018H204.916V112.705H209.168V111.721H210.918V112.705H215.129ZM210.043 114.359C212.736 114.359 214.227 114.961 214.227 116.15C214.227 117.183 213.058 117.777 210.918 117.9V118.543H215.717V119.896H204.369V118.543H209.168V117.9C207.035 117.777 205.846 117.183 205.859 116.15C205.846 114.961 207.363 114.359 210.043 114.359ZM210.043 115.535C208.471 115.535 207.719 115.713 207.719 116.15C207.719 116.547 208.471 116.738 210.043 116.738C211.629 116.738 212.354 116.547 212.354 116.15C212.354 115.713 211.629 115.535 210.043 115.535ZM226.879 111.816V124.258H225.224V118.01H224.021V123.656H222.421V112.021H224.021V116.615H225.224V111.816H226.879ZM221.109 113.252V114.66H218.224V119.965C219.427 119.958 220.494 119.896 221.697 119.678L221.82 121.1C220.302 121.387 218.976 121.428 217.336 121.441H216.474V113.252H221.109Z" fill="#05FFF7"/>
<mask id="mask1_7387_19891" style="mask-type:alpha" maskUnits="userSpaceOnUse" x="24" y="140" width="20" height="20">
<rect x="24" y="140" width="20" height="20" fill="#D9D9D9"/>
</mask>
<g mask="url(#mask1_7387_19891)">
<path d="M41.3036 149.144V155.785C41.3036 156.206 41.1578 156.562 40.8661 156.854C40.5744 157.146 40.2182 157.292 39.7973 157.292H28.2267C27.8059 157.292 27.4496 157.146 27.158 156.854C26.8663 156.562 26.7205 156.206 26.7205 155.785V149.128C26.3849 148.852 26.133 148.495 25.9648 148.055C25.7965 147.616 25.793 147.141 25.9544 146.631L26.7973 143.878C26.9085 143.528 27.097 143.245 27.363 143.03C27.6291 142.816 27.9469 142.708 28.3165 142.708H39.6915C40.0612 142.708 40.3769 142.811 40.6386 143.016C40.9004 143.221 41.0911 143.503 41.2107 143.862L42.0696 146.631C42.231 147.141 42.2276 147.614 42.0592 148.05C41.891 148.487 41.6392 148.851 41.3036 149.144ZM35.8455 148.542C36.3006 148.542 36.6428 148.402 36.8719 148.124C37.1011 147.846 37.1948 147.547 37.1532 147.227L36.6467 143.958H34.6369V147.25C34.6369 147.6 34.7555 147.903 34.9928 148.159C35.23 148.414 35.5142 148.542 35.8455 148.542ZM32.0955 148.542C32.4789 148.542 32.7901 148.414 33.0288 148.159C33.2677 147.903 33.3871 147.6 33.3871 147.25V143.958H31.3773L30.8711 147.26C30.8261 147.555 30.919 147.843 31.1498 148.123C31.3807 148.402 31.6959 148.542 32.0955 148.542ZM28.3871 148.542C28.6959 148.542 28.9614 148.434 29.1836 148.219C29.4058 148.003 29.5431 147.733 29.5955 147.407L30.0857 143.958H28.3165C28.2257 143.958 28.1536 143.978 28.1003 144.018C28.0468 144.058 28.0067 144.119 27.9801 144.199L27.1786 146.91C27.0686 147.268 27.1205 147.629 27.3342 147.994C27.5478 148.359 27.8988 148.542 28.3871 148.542ZM39.6371 148.542C40.088 148.542 40.433 148.365 40.6723 148.01C40.9117 147.656 40.9694 147.289 40.8455 146.91L40.0023 144.183C39.9757 144.102 39.9357 144.045 39.8823 144.01C39.8289 143.976 39.7567 143.958 39.6659 143.958H37.9384L38.4286 147.407C38.481 147.733 38.6183 148.003 38.8405 148.219C39.0627 148.434 39.3283 148.542 39.6371 148.542ZM28.2267 156.042H39.7973C39.8721 156.042 39.9335 156.018 39.9815 155.97C40.0297 155.921 40.0538 155.86 40.0538 155.785V149.718C39.963 149.751 39.8871 149.772 39.8261 149.78C39.7653 149.788 39.7023 149.792 39.6371 149.792C39.2621 149.792 38.9323 149.724 38.6476 149.588C38.3628 149.452 38.0869 149.235 37.8196 148.936C37.5858 149.196 37.3091 149.404 36.9896 149.559C36.6702 149.714 36.3059 149.792 35.8967 149.792C35.5431 149.792 35.2098 149.718 34.8967 149.571C34.5837 149.424 34.2888 149.213 34.0121 148.936C33.7546 149.213 33.463 149.424 33.1371 149.571C32.8112 149.718 32.481 149.792 32.1467 149.792C31.7706 149.792 31.418 149.723 31.089 149.587C30.76 149.451 30.4705 149.234 30.2205 148.936C29.8699 149.286 29.5469 149.516 29.2515 149.627C28.9562 149.737 28.6681 149.792 28.3871 149.792C28.3219 149.792 28.2545 149.788 28.1851 149.78C28.1156 149.772 28.044 149.751 27.9703 149.718V155.785C27.9703 155.86 27.9944 155.921 28.0426 155.97C28.0906 156.018 28.152 156.042 28.2267 156.042Z" fill="#888888"/>
</g>
<rect x="52.5" y="146.5" width="86" height="7" rx="3.5" stroke="#888888"/>
<path d="M152.072 145.512C152.059 147.18 152.92 148.711 154.916 149.326L154 150.693C152.66 150.229 151.751 149.367 151.238 148.246C150.678 149.545 149.673 150.57 148.176 151.076L147.26 149.682C149.393 148.998 150.295 147.33 150.309 145.594V144.459H152.072V145.512ZM157.855 143.816V151.104H156.119V147.521H153.781V146.1H156.119V143.816H157.855ZM153.604 151.432C156.256 151.432 157.883 152.32 157.896 153.852C157.883 155.383 156.256 156.258 153.604 156.258C150.951 156.258 149.324 155.383 149.324 153.852C149.324 152.32 150.951 151.432 153.604 151.432ZM153.604 152.785C151.949 152.785 151.061 153.141 151.061 153.852C151.061 154.535 151.949 154.904 153.604 154.904C155.258 154.904 156.16 154.535 156.16 153.852C156.16 153.141 155.258 152.785 153.604 152.785ZM165.722 144.787C165.722 146.25 167.212 147.877 170.07 148.232L169.386 149.641C167.212 149.326 165.62 148.321 164.806 146.975C163.986 148.321 162.407 149.326 160.254 149.641L159.556 148.232C162.386 147.877 163.89 146.25 163.89 144.787V144.186H165.722V144.787ZM170.466 150.584V152.006H165.627V156.258H163.904V152.006H159.119V150.584H170.466Z" fill="#888888"/>
<mask id="mask2_7387_19891" style="mask-type:alpha" maskUnits="userSpaceOnUse" x="24" y="172" width="20" height="20">
<rect x="24" y="172" width="20" height="20" fill="#D9D9D9"/>
</mask>
<g mask="url(#mask2_7387_19891)">
<path d="M41.3036 181.144V187.785C41.3036 188.206 41.1578 188.562 40.8661 188.854C40.5744 189.146 40.2182 189.292 39.7973 189.292H28.2267C27.8059 189.292 27.4496 189.146 27.158 188.854C26.8663 188.562 26.7205 188.206 26.7205 187.785V181.128C26.3849 180.852 26.133 180.495 25.9648 180.055C25.7965 179.616 25.793 179.141 25.9544 178.631L26.7973 175.878C26.9085 175.528 27.097 175.245 27.363 175.03C27.6291 174.816 27.9469 174.708 28.3165 174.708H39.6915C40.0612 174.708 40.3769 174.811 40.6386 175.016C40.9004 175.221 41.0911 175.503 41.2107 175.862L42.0696 178.631C42.231 179.141 42.2276 179.614 42.0592 180.05C41.891 180.487 41.6392 180.851 41.3036 181.144ZM35.8455 180.542C36.3006 180.542 36.6428 180.402 36.8719 180.124C37.1011 179.846 37.1948 179.547 37.1532 179.227L36.6467 175.958H34.6369V179.25C34.6369 179.6 34.7555 179.903 34.9928 180.159C35.23 180.414 35.5142 180.542 35.8455 180.542ZM32.0955 180.542C32.4789 180.542 32.7901 180.414 33.0288 180.159C33.2677 179.903 33.3871 179.6 33.3871 179.25V175.958H31.3773L30.8711 179.26C30.8261 179.555 30.919 179.843 31.1498 180.123C31.3807 180.402 31.6959 180.542 32.0955 180.542ZM28.3871 180.542C28.6959 180.542 28.9614 180.434 29.1836 180.219C29.4058 180.003 29.5431 179.733 29.5955 179.407L30.0857 175.958H28.3165C28.2257 175.958 28.1536 175.978 28.1003 176.018C28.0468 176.058 28.0067 176.119 27.9801 176.199L27.1786 178.91C27.0686 179.268 27.1205 179.629 27.3342 179.994C27.5478 180.359 27.8988 180.542 28.3871 180.542ZM39.6371 180.542C40.088 180.542 40.433 180.365 40.6723 180.01C40.9117 179.656 40.9694 179.289 40.8455 178.91L40.0023 176.183C39.9757 176.102 39.9357 176.045 39.8823 176.01C39.8289 175.976 39.7567 175.958 39.6659 175.958H37.9384L38.4286 179.407C38.481 179.733 38.6183 180.003 38.8405 180.219C39.0627 180.434 39.3283 180.542 39.6371 180.542ZM28.2267 188.042H39.7973C39.8721 188.042 39.9335 188.018 39.9815 187.97C40.0297 187.921 40.0538 187.86 40.0538 187.785V181.718C39.963 181.751 39.8871 181.772 39.8261 181.78C39.7653 181.788 39.7023 181.792 39.6371 181.792C39.2621 181.792 38.9323 181.724 38.6476 181.588C38.3628 181.452 38.0869 181.235 37.8196 180.936C37.5858 181.196 37.3091 181.404 36.9896 181.559C36.6702 181.714 36.3059 181.792 35.8967 181.792C35.5431 181.792 35.2098 181.718 34.8967 181.571C34.5837 181.424 34.2888 181.213 34.0121 180.936C33.7546 181.213 33.463 181.424 33.1371 181.571C32.8112 181.718 32.481 181.792 32.1467 181.792C31.7706 181.792 31.418 181.723 31.089 181.587C30.76 181.451 30.4705 181.234 30.2205 180.936C29.8699 181.286 29.5469 181.516 29.2515 181.627C28.9562 181.737 28.6681 181.792 28.3871 181.792C28.3219 181.792 28.2545 181.788 28.1851 181.78C28.1156 181.772 28.044 181.751 27.9703 181.718V187.785C27.9703 187.86 27.9944 187.921 28.0426 187.97C28.0906 188.018 28.152 188.042 28.2267 188.042Z" fill="#888888"/>
</g>
<rect x="52.5" y="178.5" width="52" height="7" rx="3.5" stroke="#888888"/>
<path d="M123.787 175.816V188.285H122.023V175.816H123.787ZM117.033 176.691C118.906 176.691 120.301 178.414 120.301 181.121C120.301 183.855 118.906 185.564 117.033 185.564C115.119 185.564 113.725 183.855 113.738 181.121C113.725 178.414 115.119 176.691 117.033 176.691ZM117.033 178.264C116.062 178.264 115.42 179.275 115.42 181.121C115.42 182.98 116.062 183.979 117.033 183.979C117.977 183.979 118.619 182.98 118.619 181.121C118.619 179.275 117.977 178.264 117.033 178.264ZM130.615 177.115V178.496H127.211V180.369H130.369V181.709H127.211V183.951C128.612 183.938 129.63 183.89 130.847 183.719L130.97 185.141C129.535 185.373 128.304 185.414 126.418 185.414H125.543V177.115H130.615ZM135.906 175.816V188.258H134.238V182.037H133.158V187.684H131.517V175.994H133.158V180.643H134.238V175.816H135.906ZM147.409 175.83V185.223H145.659V184.238H143.28V183.049H145.659V175.83H147.409ZM147.683 186.645V188.039H138.413V184.32H140.15V182.666C139.035 182.714 137.976 182.721 137.032 182.721L136.827 181.34C139.111 181.326 142.187 181.299 144.812 180.971L144.907 182.215C143.923 182.379 142.904 182.495 141.9 182.57V184.936H140.15V186.645H147.683ZM140.874 176.254C142.679 176.24 143.978 177.156 143.978 178.482C143.978 179.809 142.679 180.67 140.874 180.67C139.029 180.67 137.743 179.809 137.743 178.482C137.743 177.156 139.015 176.24 140.874 176.254ZM140.874 177.525C139.986 177.525 139.384 177.867 139.398 178.482C139.384 179.084 139.986 179.412 140.874 179.412C141.708 179.412 142.31 179.084 142.323 178.482C142.31 177.867 141.708 177.525 140.874 177.525Z" fill="#888888"/>
<g filter="url(#filter1_d_7387_19891)">
<rect x="24" y="216" width="204" height="80" rx="8" fill="url(#paint0_linear_7387_19891)" fill-opacity="0.5" shape-rendering="crispEdges"/>
<rect x="24.5" y="216.5" width="203" height="79" rx="7.5" stroke="url(#paint1_linear_7387_19891)" shape-rendering="crispEdges"/>
<path d="M48.6133 245.25C52.5586 245.27 54.7852 246.246 54.8047 248.043C54.7852 249.859 52.5586 250.797 48.6133 250.797C44.6289 250.797 42.3828 249.859 42.3828 248.043C42.3828 246.246 44.6289 245.27 48.6133 245.25ZM48.6133 247.066C46.0938 247.066 44.9414 247.379 44.9414 248.043C44.9414 248.727 46.0938 249 48.6133 248.98C51.1133 249 52.2656 248.727 52.2852 248.043C52.2656 247.379 51.1133 247.066 48.6133 247.066ZM55.8984 234.293V236.168H41.3086V234.293H47.3828V232.887H49.8828V234.293H55.8984ZM48.6328 236.656C52.4805 236.656 54.6094 237.516 54.6094 239.215C54.6094 240.689 52.9395 241.539 49.8828 241.715V242.633H56.7383V244.566H40.5273V242.633H47.3828V241.715C44.3359 241.539 42.6367 240.689 42.6562 239.215C42.6367 237.516 44.8047 236.656 48.6328 236.656ZM48.6328 238.336C46.3867 238.336 45.3125 238.59 45.3125 239.215C45.3125 239.781 46.3867 240.055 48.6328 240.055C50.8984 240.055 51.9336 239.781 51.9336 239.215C51.9336 238.59 50.8984 238.336 48.6328 238.336ZM72.6836 233.023V250.797H70.3203V241.871H68.6016V249.938H66.3164V233.316H68.6016V239.879H70.3203V233.023H72.6836ZM64.4414 235.074V237.086H60.3203V244.664C62.0391 244.654 63.5625 244.566 65.2812 244.254L65.457 246.285C63.2891 246.695 61.3945 246.754 59.0508 246.773H57.8203V235.074H64.4414ZM89.5078 233.023V250.797H87.125V233.023H89.5078ZM85.7969 233.277V249.977H83.4531V241.578H82.0273C81.793 245.074 80.3086 247.184 78.1211 247.184C75.7773 247.184 74.2539 244.723 74.2539 240.719C74.2539 236.734 75.7773 234.293 78.1211 234.293C80.2598 234.293 81.7246 236.285 82.0078 239.605H83.4531V233.277H85.7969ZM78.1211 236.637C77.125 236.637 76.5391 238.004 76.5586 240.719C76.5391 243.453 77.125 244.801 78.1211 244.781C79.1367 244.801 79.7422 243.453 79.7422 240.719C79.7422 238.004 79.1367 236.637 78.1211 236.637ZM105.316 237.867V239.82H92.8945V233.648H95.375V237.867H105.316ZM107.133 241.734V243.688H90.8633V241.734H107.133ZM105.434 248.414V250.406H92.7383V245.133H95.2383V248.414H105.434ZM128.184 235.367V237.379H125.879V239.195H128.184V241.266H125.879V243.512H123.379V233.023H125.879V235.367H128.184ZM125.879 244.215V250.797H123.379V246.227H113.906V244.215H125.879ZM116.777 234C119.531 233.98 121.621 235.816 121.621 238.316C121.621 240.875 119.531 242.672 116.777 242.672C114.004 242.672 111.895 240.875 111.895 238.316C111.895 235.816 114.004 233.98 116.777 234ZM116.777 236.129C115.371 236.129 114.336 236.93 114.355 238.316C114.336 239.742 115.371 240.562 116.777 240.562C118.145 240.562 119.18 239.742 119.199 238.316C119.18 236.93 118.145 236.129 116.777 236.129ZM192.898 234.215C195.711 234.195 197.82 236.031 197.82 238.57C197.82 241.129 195.711 242.945 192.898 242.945C190.086 242.945 187.957 241.129 187.957 238.57C187.957 236.031 190.086 234.195 192.898 234.215ZM192.898 236.363C191.492 236.363 190.418 237.184 190.438 238.57C190.418 239.977 191.492 240.777 192.898 240.777C194.305 240.777 195.379 239.977 195.398 238.57C195.379 237.184 194.324 236.363 192.898 236.363ZM202.078 233.023V250.836H199.598V233.023H202.078ZM187.215 245.172C190.379 245.191 194.773 245.133 198.582 244.605L198.777 246.402C194.832 247.164 190.613 247.203 187.508 247.203L187.215 245.172ZM55.9375 261.023V278.797H53.5547V269.832H51.9531V277.977H49.5898V261.277H51.9531V267.801H53.5547V261.023H55.9375ZM48.1055 262.859V274.324H41.0352V262.859H48.1055ZM43.3594 264.832V272.371H45.7812V264.832H43.3594ZM67.4102 262.215V264.207H63.875C63.8945 266.277 65.1348 268.279 67.9766 269.109L66.7852 271.062C64.8223 270.467 63.4648 269.275 62.6836 267.742C61.8926 269.539 60.4473 270.965 58.3086 271.668L57.0391 269.695C59.9883 268.768 61.3164 266.463 61.3555 264.207H57.7227V262.215H67.4102ZM71.4141 261.023V265.145H73.8164V267.176H71.4141V271.57H68.9141V261.023H71.4141ZM65.5938 271.922C69.2852 271.902 71.5898 273.172 71.5898 275.34C71.5898 277.508 69.2852 278.797 65.5938 278.797C61.8242 278.797 59.5 277.508 59.5 275.34C59.5 273.172 61.8242 271.902 65.5938 271.922ZM65.5938 273.855C63.25 273.855 61.9805 274.344 62 275.34C61.9805 276.355 63.25 276.863 65.5938 276.863C67.8984 276.863 69.1289 276.355 69.1289 275.34C69.1289 274.344 67.8984 273.855 65.5938 273.855ZM88.9805 261.023V278.836H86.4609V261.023H88.9805ZM79.332 262.273C82.0078 262.273 84 264.734 84 268.602C84 272.508 82.0078 274.949 79.332 274.949C76.5977 274.949 74.6055 272.508 74.625 268.602C74.6055 264.734 76.5977 262.273 79.332 262.273ZM79.332 264.52C77.9453 264.52 77.0273 265.965 77.0273 268.602C77.0273 271.258 77.9453 272.684 79.332 272.684C80.6797 272.684 81.5977 271.258 81.5977 268.602C81.5977 265.965 80.6797 264.52 79.332 264.52ZM101.457 272.43C101.457 273.865 102.053 275.34 103.508 276.316C104.973 275.281 105.617 273.748 105.617 272.43V271.824H108.078V272.43C108.059 274.285 109.055 276.004 111.418 276.727L110.207 278.543C108.508 277.967 107.395 276.883 106.789 275.516C106.193 276.883 105.158 278.074 103.566 278.699C101.887 278.094 100.842 276.941 100.266 275.574C99.6406 276.902 98.5469 277.977 96.9258 278.543L95.6953 276.727C98.0391 275.926 99.0156 274.168 99.0352 272.43V271.824H101.457V272.43ZM109.875 261.043V271.082H107.375V261.043H109.875ZM100.129 261.941C102.902 261.941 104.992 263.699 104.992 266.219C104.992 268.699 102.902 270.457 100.129 270.457C97.3555 270.457 95.2656 268.699 95.2656 266.219C95.2656 263.699 97.3555 261.941 100.129 261.941ZM100.129 264.031C98.7031 264.031 97.6875 264.852 97.707 266.219C97.6875 267.566 98.7031 268.387 100.129 268.387C101.516 268.387 102.531 267.566 102.531 266.219C102.531 264.852 101.516 264.031 100.129 264.031ZM116.68 262.273C119.082 262.273 120.869 264.256 121.23 267.449H124.316V261.023H126.777V278.836H124.316V269.441H121.25C120.986 272.859 119.16 274.949 116.68 274.949C113.984 274.949 112.051 272.508 112.07 268.602C112.051 264.734 113.984 262.273 116.68 262.273ZM116.68 264.52C115.352 264.52 114.434 265.965 114.453 268.602C114.434 271.258 115.352 272.684 116.68 272.684C118.027 272.684 118.906 271.258 118.906 268.602C118.906 265.965 118.027 264.52 116.68 264.52ZM144.832 274.676V276.727H128.562V274.676H132.195V270.32C130.818 269.5 129.988 268.24 129.988 266.668C129.988 263.797 132.801 261.883 136.668 261.883C140.516 261.883 143.348 263.797 143.367 266.668C143.357 268.201 142.547 269.451 141.219 270.281V274.676H144.832ZM136.668 263.855C134.129 263.855 132.449 264.871 132.449 266.668C132.449 268.406 134.129 269.48 136.668 269.48C139.188 269.48 140.887 268.406 140.906 266.668C140.887 264.871 139.188 263.855 136.668 263.855ZM134.656 274.676H138.699V271.219C138.064 271.346 137.381 271.414 136.668 271.414C135.955 271.414 135.281 271.355 134.656 271.219V274.676Z" fill="white"/>
<path d="M138.492 249.195C135.387 249.195 133.16 247.477 133.102 245.016H136.07C136.129 246.07 137.145 246.773 138.512 246.773C139.918 246.773 140.934 245.973 140.914 244.84C140.934 243.688 139.898 242.867 138.238 242.867H136.93V240.699H138.238C139.625 240.699 140.602 239.938 140.602 238.824C140.602 237.75 139.781 237.008 138.531 237.008C137.281 237.008 136.246 237.711 136.207 238.785H133.395C133.434 236.344 135.641 234.664 138.531 234.664C141.48 234.664 143.453 236.402 143.434 238.648C143.453 240.23 142.34 241.363 140.758 241.637V241.754C142.828 242.008 143.98 243.277 143.961 245.035C143.98 247.457 141.676 249.195 138.492 249.195ZM151.02 249.195C147.484 249.195 145.336 246.559 145.336 241.93C145.336 237.301 147.484 234.664 151.02 234.664C154.555 234.664 156.703 237.32 156.703 241.93C156.703 246.578 154.555 249.195 151.02 249.195ZM151.02 246.773C152.66 246.773 153.715 245.191 153.695 241.93C153.695 238.707 152.66 237.066 151.02 237.066C149.379 237.066 148.344 238.707 148.344 241.93C148.324 245.191 149.379 246.773 151.02 246.773ZM163.723 249.195C160.188 249.195 158.039 246.559 158.039 241.93C158.039 237.301 160.188 234.664 163.723 234.664C167.258 234.664 169.406 237.32 169.406 241.93C169.406 246.578 167.258 249.195 163.723 249.195ZM163.723 246.773C165.363 246.773 166.418 245.191 166.398 241.93C166.398 238.707 165.363 237.066 163.723 237.066C162.082 237.066 161.047 238.707 161.047 241.93C161.027 245.191 162.082 246.773 163.723 246.773ZM185.684 233.023V250.797H183.281V241.754H181.66V250.016H179.336V233.492H181.66V239.762H183.281V233.023H185.684ZM178.086 235.211C178.066 240.172 176.582 244.234 171.582 247.145L170.137 245.426C173.76 243.297 175.312 240.689 175.664 237.203H171.035V235.211H178.086Z" fill="#05FFF7"/>
</g>
</g>
<defs>
<filter id="filter0_d_7387_19891" x="0" y="0" width="252" height="344" filterUnits="userSpaceOnUse" color-interpolation-filters="sRGB">
<feFlood flood-opacity="0" result="BackgroundImageFix"/>
<feColorMatrix in="SourceAlpha" type="matrix" values="0 0 0 0 0 0 0 0 0 0 0 0 0 0 0 0 0 0 127 0" result="hardAlpha"/>
<feOffset dy="4"/>
<feGaussianBlur stdDeviation="4"/>
<feComposite in2="hardAlpha" operator="out"/>
<feColorMatrix type="matrix" values="0 0 0 0 0 0 0 0 0 0 0 0 0 0 0 0 0 0 0.15 0"/>
<feBlend mode="normal" in2="BackgroundImageFix" result="effect1_dropShadow_7387_19891"/>
<feBlend mode="normal" in="SourceGraphic" in2="effect1_dropShadow_7387_19891" result="shape"/>
</filter>
<filter id="filter1_d_7387_19891" x="16" y="212" width="220" height="96" filterUnits="userSpaceOnUse" color-interpolation-filters="sRGB">
<feFlood flood-opacity="0" result="BackgroundImageFix"/>
<feColorMatrix in="SourceAlpha" type="matrix" values="0 0 0 0 0 0 0 0 0 0 0 0 0 0 0 0 0 0 127 0" result="hardAlpha"/>
<feOffset dy="4"/>
<feGaussianBlur stdDeviation="4"/>
<feComposite in2="hardAlpha" operator="out"/>
<feColorMatrix type="matrix" values="0 0 0 0 0 0 0 0 0 0 0 0 0 0 0 0 0 0 0.15 0"/>
<feBlend mode="normal" in2="BackgroundImageFix" result="effect1_dropShadow_7387_19891"/>
<feBlend mode="normal" in="SourceGraphic" in2="effect1_dropShadow_7387_19891" result="shape"/>
</filter>
<linearGradient id="paint0_linear_7387_19891" x1="24" y1="216" x2="235.511" y2="259.374" gradientUnits="userSpaceOnUse">
<stop stop-color="#242424"/>
<stop offset="1" stop-color="#242424"/>
</linearGradient>
<linearGradient id="paint1_linear_7387_19891" x1="24" y1="216" x2="215.974" y2="318.519" gradientUnits="userSpaceOnUse">
<stop stop-color="#242424"/>
<stop offset="1" stop-color="#666666" stop-opacity="0"/>
</linearGradient>
</defs>
</svg>
