<svg width="236" height="328" viewBox="0 0 252 344" fill="none" xmlns="http://www.w3.org/2000/svg">
    <g filter="url(#filter0_d_7515_21155)">
        <rect x="8" y="4" width="236" height="328" rx="8" fill="#242424" />
        <g filter="url(#filter1_d_7515_21155)">
            <rect x="24" y="28" width="204" height="100" rx="8"
                fill="url(#paint0_linear_7515_21155)" fill-opacity="0.5"
                shape-rendering="crispEdges" />
            <rect x="24.5" y="28.5" width="203" height="99" rx="7.5"
                stroke="url(#paint1_linear_7515_21155)" shape-rendering="crispEdges" />
            <path
                d="M41.1133 57L41.0938 54.8711L46.1719 50.2031C47.5 48.9336 48.2031 48.1523 48.2031 47.0391C48.2031 45.7891 47.2461 45.0078 45.957 45.0078C44.6289 45.0078 43.7695 45.8477 43.7695 47.1953H40.9766C40.957 44.4219 43.0078 42.6641 45.9961 42.6641C49.0234 42.6641 51.0352 44.3828 51.0352 46.8438C51.0352 48.4453 50.2539 49.7734 47.3438 52.4102L45.1953 54.5V54.5781H51.2305V57H41.1133ZM58.3086 57.1953C54.7734 57.1953 52.625 54.5586 52.625 49.9297C52.625 45.3008 54.7734 42.6641 58.3086 42.6641C61.8438 42.6641 63.9922 45.3203 63.9922 49.9297C63.9922 54.5781 61.8438 57.1953 58.3086 57.1953ZM58.3086 54.7734C59.9492 54.7734 61.0039 53.1914 60.9844 49.9297C60.9844 46.707 59.9492 45.0664 58.3086 45.0664C56.668 45.0664 55.6328 46.707 55.6328 49.9297C55.6133 53.1914 56.668 54.7734 58.3086 54.7734ZM65.5234 57L65.5039 54.8711L70.582 50.2031C71.9102 48.9336 72.6133 48.1523 72.6133 47.0391C72.6133 45.7891 71.6562 45.0078 70.3672 45.0078C69.0391 45.0078 68.1797 45.8477 68.1797 47.1953H65.3867C65.3672 44.4219 67.418 42.6641 70.4062 42.6641C73.4336 42.6641 75.4453 44.3828 75.4453 46.8438C75.4453 48.4453 74.6641 49.7734 71.7539 52.4102L69.6055 54.5V54.5781H75.6406V57H65.5234ZM82.4258 57.1953C79.4766 57.1953 77.3281 55.457 77.2695 53.0156H80.1211C80.1797 54.1289 81.1953 54.8711 82.4258 54.8711C83.8906 54.8711 84.9258 53.8359 84.9258 52.3711C84.9258 50.8672 83.8711 49.832 82.3867 49.8125C81.332 49.8125 80.5898 50.2031 80.1602 51.0039H77.5039L78.2656 42.8594H86.9766V45.2617H80.6875L80.2969 48.8359H80.4141C80.9414 48.1328 81.9961 47.6445 83.2461 47.6445C85.8438 47.6445 87.7773 49.5781 87.7773 52.293C87.7773 55.1445 85.6094 57.1953 82.4258 57.1953ZM107.285 50.2031V52.1758H94.707V42.332H107.148V44.3438H97.2461V46.2188H106.738V48.1719H97.2461V50.2031H107.285ZM109.062 54.6953V56.7266H92.793V54.6953H109.062ZM116.57 42.3516V47.9961H112.723V49.9297C114.637 49.9199 116.053 49.8125 117.723 49.5195L117.957 51.4727C115.926 51.8633 114.168 51.9023 111.531 51.9023H110.301V46.1992H114.168V44.2852H110.281V42.3516H116.57ZM124.852 41.043V54.4023H122.488V41.043H124.852ZM121.219 41.3359V53.9727H118.875V47.5078H117.234V45.4766H118.875V41.3359H121.219ZM125.301 56.4922V58.4844H112.801V53.0547H115.301V56.4922H125.301ZM140.855 49.2461V51.2383H128.277V42.5078H140.719V44.5195H130.738V49.2461H140.855ZM142.633 54.5781V56.6289H126.363V54.5781H142.633ZM156.574 41.7852C156.574 46.5898 154.191 49.3828 148.469 50.7305L147.59 48.8359C150.051 48.2988 151.643 47.5078 152.629 46.5117L148.02 46.8438L147.668 44.9883L153.703 44.7734C153.82 44.4414 153.898 44.0898 153.938 43.7188H148.566V41.7852H156.574ZM162.238 41.0234V50.0273H159.758V46.8633H156.613V44.832H159.758V41.0234H162.238ZM162.238 50.6914V55.4961H152.902V56.6484H162.629V58.6016H150.441V53.6992H159.777V52.6055H150.422V50.6914H162.238ZM179.023 41.0234V58.8359H176.543V49.4609H173.672V47.4297H176.543V41.0234H179.023ZM172.676 42.5078V49.168H167.148V52.6445C169.6 52.625 171.68 52.5371 173.965 52.1367L174.16 54.168C171.523 54.5977 169.102 54.6953 166.133 54.6953H164.668V47.1953H170.254V44.5195H164.629V42.5078H172.676ZM54.7461 98.6641V100.793C54.7461 103.234 54.7461 105.656 54.1016 109.328L51.582 109.113C52.2461 105.695 52.2461 103.156 52.2656 100.793V100.656H42.207V98.6641H54.7461ZM56.7383 110.422V112.473H40.5273V110.422H56.7383ZM72.7227 97.0234V114.797H70.3789V97.0234H72.7227ZM68.9336 97.4141V114.016H66.6094V105.852H63.6992C62.6836 107.883 61.0332 109.641 58.5039 111.105L57.0977 109.348C60.6816 107.219 62.2637 104.631 62.6055 101.145H58.0742V99.1328H65.0859C65.0762 100.822 64.9004 102.414 64.4805 103.879H66.6094V97.4141H68.9336ZM88.3633 97.7852V103.586H79.7695V97.7852H88.3633ZM82.25 99.7188V101.672H85.9219V99.7188H82.25ZM93.2656 97.043V110.461H90.7656V109.055H87.3672V107.355H90.7656V97.043H93.2656ZM93.6562 112.492V114.484H80.4141V109.172H82.8945V106.75C81.3516 106.799 79.8379 106.828 78.4414 106.848L78.1484 104.836C81.6445 104.816 85.8438 104.777 89.5547 104.445L89.6914 106.281C88.2949 106.438 86.8398 106.545 85.3945 106.633V110.051H82.8945V112.492H93.6562ZM110.402 97.0234V114.797H108V97.0234H110.402ZM106.633 97.3359V113.996H104.309V105.539H101.125V103.508H104.309V97.3359H106.633ZM102.336 99.0352V101.027H97.9805V108.762C99.8848 108.752 101.32 108.654 102.98 108.312L103.176 110.344C101.164 110.754 99.3672 110.832 96.7695 110.832H95.5391V99.0352H102.336Z"
                fill="white" />
            <path
                d="M41.1914 70.8594H44.8242L48.75 80.4492H48.9062L52.832 70.8594H56.4648V85H53.6133V75.7422H53.4961L49.8047 84.9414H47.8516L44.1602 75.7031H44.043V85H41.1914V70.8594ZM63.0547 85.2148C59.8516 85.2148 57.8594 83.0078 57.8594 79.7266C57.8594 76.4453 59.8516 74.2578 63.0547 74.2578C66.2578 74.2578 68.2695 76.4453 68.2695 79.7266C68.2695 83.0078 66.2578 85.2148 63.0547 85.2148ZM63.0742 82.9688C64.5586 82.9688 65.3203 81.582 65.3203 79.7266C65.3203 77.8516 64.5586 76.4648 63.0742 76.4648C61.5703 76.4648 60.7891 77.8516 60.7891 79.7266C60.7891 81.582 61.5703 82.9688 63.0742 82.9688ZM74.3516 85.2148C71.1094 85.2148 69.1562 82.9688 69.1562 79.7266C69.1562 76.4844 71.1289 74.2578 74.3516 74.2578C77.0859 74.2578 78.9414 75.8594 79.0586 78.2812H76.3438C76.168 77.2266 75.4844 76.5039 74.3906 76.5039C73.0039 76.5039 72.0859 77.6758 72.0859 79.6875C72.0859 81.7383 72.9844 82.9102 74.3906 82.9102C75.4062 82.9102 76.168 82.2852 76.3438 81.1523H79.0586C78.9219 83.5547 77.1641 85.2148 74.3516 85.2148ZM83.2461 78.8672V85H80.3555V70.8594H83.168V76.25H83.2852C83.7734 75.0195 84.8477 74.2578 86.4492 74.2578C88.6562 74.2578 90.1211 75.7422 90.1211 78.2422V85H87.2305V78.75C87.2305 77.4414 86.5273 76.6602 85.3164 76.6602C84.1055 76.6602 83.2461 77.4609 83.2461 78.8672ZM91.3398 82.0312C91.3398 79.668 93.2539 78.8867 95.2852 78.7695C96.0469 78.7207 97.4727 78.6523 97.9219 78.6328V77.7734C97.9023 76.8945 97.2969 76.3672 96.2227 76.3672C95.2461 76.3672 94.6211 76.8164 94.4648 77.5391H91.7109C91.8867 75.7031 93.4883 74.2578 96.3008 74.2578C98.6055 74.2578 100.793 75.293 100.793 77.8516V85H98.0586V83.5352H97.9805C97.4531 84.5117 96.457 85.1953 94.875 85.1953C92.8438 85.1953 91.3398 84.1406 91.3398 82.0312ZM94.1133 81.9531C94.1133 82.7734 94.7773 83.2031 95.6953 83.2031C97.0039 83.2031 97.9414 82.3242 97.9219 81.2109V80.4297C97.4824 80.4492 96.252 80.5176 95.7539 80.5664C94.7578 80.6641 94.1133 81.1328 94.1133 81.9531ZM106.668 70.8594H110.301L114.227 80.4492H114.383L118.309 70.8594H121.941V85H119.09V75.7422H118.973L115.281 84.9414H113.328L109.637 75.7031H109.52V85H106.668V70.8594ZM128.531 85.2148C125.328 85.2148 123.336 83.0078 123.336 79.7266C123.336 76.4453 125.328 74.2578 128.531 74.2578C131.734 74.2578 133.746 76.4453 133.746 79.7266C133.746 83.0078 131.734 85.2148 128.531 85.2148ZM128.551 82.9688C130.035 82.9688 130.797 81.582 130.797 79.7266C130.797 77.8516 130.035 76.4648 128.551 76.4648C127.047 76.4648 126.266 77.8516 126.266 79.7266C126.266 81.582 127.047 82.9688 128.551 82.9688ZM141.859 80.4883V74.3945H144.75V85H141.977V83.0859H141.859C141.371 84.3164 140.238 85.1367 138.637 85.1367C136.508 85.1367 135.062 83.6328 135.062 81.1523V74.3945H137.953V80.6445C137.953 81.8945 138.676 82.6953 139.809 82.6953C140.863 82.6953 141.859 81.9336 141.859 80.4883ZM152.551 77.5391C152.434 76.7969 151.77 76.3086 150.812 76.3086C149.875 76.3086 149.152 76.7578 149.172 77.4023C149.152 77.8711 149.543 78.2422 150.539 78.457L152.434 78.8477C154.484 79.2773 155.48 80.1953 155.5 81.7188C155.48 83.8086 153.605 85.2148 150.793 85.2148C147.922 85.2148 146.242 83.9258 146.008 81.8555H148.918C149.055 82.6953 149.738 83.125 150.793 83.125C151.848 83.125 152.551 82.6953 152.551 82.0117C152.551 81.4648 152.102 81.1328 151.105 80.918L149.348 80.5664C147.336 80.1758 146.281 79.1211 146.301 77.5586C146.281 75.5273 148.039 74.2578 150.773 74.2578C153.449 74.2578 155.109 75.5273 155.266 77.5391H152.551ZM162.832 77.5391C162.715 76.7969 162.051 76.3086 161.094 76.3086C160.156 76.3086 159.434 76.7578 159.453 77.4023C159.434 77.8711 159.824 78.2422 160.82 78.457L162.715 78.8477C164.766 79.2773 165.762 80.1953 165.781 81.7188C165.762 83.8086 163.887 85.2148 161.074 85.2148C158.203 85.2148 156.523 83.9258 156.289 81.8555H159.199C159.336 82.6953 160.02 83.125 161.074 83.125C162.129 83.125 162.832 82.6953 162.832 82.0117C162.832 81.4648 162.383 81.1328 161.387 80.918L159.629 80.5664C157.617 80.1758 156.562 79.1211 156.582 77.5586C156.562 75.5273 158.32 74.2578 161.055 74.2578C163.73 74.2578 165.391 75.5273 165.547 77.5391H162.832ZM171.863 85.2148C168.621 85.2148 166.629 83.1055 166.629 79.7461C166.629 76.4648 168.641 74.2578 171.746 74.2578C174.539 74.2578 176.727 76.0156 176.727 79.6289V80.4492H169.48C169.48 82.0508 170.438 83.0469 171.922 83.0469C172.898 83.0469 173.602 82.6172 173.895 81.9727H176.648C176.238 83.9258 174.48 85.2148 171.863 85.2148ZM169.48 78.6328H173.992C173.992 77.3438 173.094 76.4258 171.805 76.4258C170.477 76.4258 169.529 77.4121 169.48 78.6328Z"
                fill="#9D7967" />
        </g>
        <path
            d="M55.4456 250.592L115.427 231.002L179.515 268.575C179.515 268.575 189.711 275.44 192.553 276.11L121.138 295.801C117.528 298.212 115.416 297.707 114.619 297.308C112.212 296.102 103.587 301.494 99.5752 304.34C96.3657 306.751 95.5634 306.015 95.5634 305.345C95.5634 304.139 94.2261 303.503 93.5575 303.336C91.1504 302.934 89.5457 301.159 89.0443 300.322C88.6431 299.518 87.8742 298.647 87.5399 298.312C84.7316 295.901 80.0178 294.294 78.0119 293.792C71.5931 291.782 68.9854 293.959 68.484 295.298C66.8792 298.513 62.8006 298.647 60.9619 298.312C53.3395 295.901 54.1085 290.61 55.4457 288.266C59.0563 283.042 59.9589 278.052 59.9589 276.21C59.9589 272.996 58.2874 273.531 57.4516 274.201C57.0504 274.603 55.6129 274.703 54.9442 274.703C51.3336 274.703 50.0967 271.689 49.9295 270.183C49.4281 266.164 52.4369 263.485 54.4428 261.643C56.4487 259.232 53.9413 259.634 52.4369 260.136C50.431 260.94 43.9118 260.136 40.9029 259.634C36.8912 258.83 37.8941 256.955 38.8971 256.118C39.6994 255.314 43.2431 253.773 44.9147 253.104C47.3218 251.898 52.9382 250.927 55.4456 250.592Z"
            fill="#9D7967" />
        <path
            d="M116.378 215.329C120.39 211.311 126.073 211.646 128.413 212.315L192.1 235.422C195.61 236.427 199.098 238.938 200.101 239.943C200.101 239.943 195.061 276.11 192.554 276.11H188.542C184.029 276.11 176.22 273.096 174.047 271.589L115.375 230.901C109.837 224.371 112.847 218.343 116.378 215.329Z"
            fill="#9C4C24" />
        <path
            d="M173.746 256.017L175.25 253.003L113.28 219.348C112.819 220.352 112.819 220.352 112.568 221.357L171.74 255.012L173.746 256.017Z"
            fill="white" />
        <path
            d="M178.31 247.477L179.815 241.952L118.435 213.722C116.931 214.425 114.324 217.238 113.822 218.343L173.797 249.989L178.31 247.477Z"
            fill="#CEA591" />
        <path
            d="M179.237 242.093C188.063 234.458 198.233 237.602 202.746 241.621C208.764 246.845 209.487 254.099 207.983 260.629C205.312 272.221 194.705 276.281 191.194 276.281C176.597 276.281 173.131 266.738 172.66 265.23C169.516 255.184 173.225 247.299 179.237 242.093Z"
            fill="#713416" />
        <path
            d="M181.574 245.187C188.486 239.066 196.45 241.587 199.985 244.809C204.697 248.997 205.264 254.811 204.086 260.046C201.995 269.339 193.687 272.593 190.938 272.593C179.507 272.593 176.793 264.943 176.423 263.735C173.961 255.681 176.866 249.36 181.574 245.187Z"
            fill="#472019" />
        <path
            d="M163.511 192.352C158.998 189.338 160.502 184.315 161.882 181.881L180.437 147.723C182.844 143.303 187.581 143.626 190.089 144.631L197.487 148.728C202.301 151.139 201.164 156.095 199.994 158.272L181.44 192.429C178.555 197.375 174.041 197.877 171.41 196.448L163.511 192.352Z"
            fill="black" />
        <path
            d="M163.511 192.352C158.998 189.338 160.502 184.314 161.882 181.881L180.437 147.723C182.844 143.303 187.581 143.626 190.089 144.631L194.586 147.014L169.011 195.236C169.011 195.236 168.024 195.365 163.511 192.352Z"
            fill="#1C1817" />
        <path
            d="M166.788 180.693C164.281 184.711 164.117 187.726 164.284 189.233C161.877 187.625 162.275 183.707 163.28 182.2L181.834 148.042C183.337 145.531 188.351 145.531 189.858 147.038C186.648 146.636 184.841 148.042 183.84 149.549L166.788 180.693Z"
            fill="white" />
        <path
            d="M169.927 195.638L163.909 192.624L158.393 202.671C155.585 207.895 159.897 211.21 162.405 212.215L202.522 225.275C206.534 226.882 206.534 229.628 206.033 230.8L198.009 251.396C197.207 253.003 195.334 252.735 194.499 252.4L191.991 251.396C189.584 250.592 188.554 252.565 187.98 253.907C186.776 256.72 187.478 259.098 187.98 259.935L197.006 262.949C201.419 264.154 204.862 258.763 206.033 255.916L215.561 230.298C217.567 223.868 212.217 219.749 209.543 218.745L166.918 205.685C165.313 205.283 165.581 203.843 165.915 203.173L169.927 195.638Z"
            fill="#B3B3B3" />
        <path
            d="M163.056 202.359L167.42 195.136C167.42 195.136 164.528 201.087 163.765 202.671C163.056 204.143 163.5 205.517 163.667 206.187C162.464 205.383 162.555 203.196 163.056 202.359Z"
            fill="#606060" />
        <path
            d="M164.595 206.388C162.99 205.584 163.926 203.039 164.595 201.867L168.105 195.337C168.105 195.337 167.604 196.306 168.105 196.808C168.346 197.05 168.923 196.643 168.923 196.643L166.099 201.867C164.895 203.876 165.263 205.048 165.597 205.383C165.196 205.383 164.594 204.379 164.594 203.876C164.093 205.383 164.428 205.551 164.595 206.388Z"
            fill="#FFFEFF" />
        <path
            d="M199.098 257.524C203.611 256.017 203.611 253.003 204.614 250.994L212.637 230.399C213.64 227.385 213.139 224.873 212.136 221.357C214.142 222.964 214.643 227.385 213.64 230.399L205.617 251.496C204.012 255.515 202.608 257.524 199.098 257.524Z"
            fill="#656565" />
        <path
            d="M197.594 262.547C202.433 260.827 204.113 255.012 205.116 253.003L213.139 232.408C214.644 228.389 214.644 225.878 213.641 223.366C215.647 224.974 216.148 227.887 214.142 232.91L206.119 254.008C204.514 258.026 203.11 262.045 197.594 262.547Z"
            fill="white" />
    </g>
    <defs>
        <filter id="filter0_d_7515_21155" x="0" y="0" width="252" height="344"
            filterUnits="userSpaceOnUse" color-interpolation-filters="sRGB">
            <feFlood flood-opacity="0" result="BackgroundImageFix" />
            <feColorMatrix in="SourceAlpha" type="matrix"
                values="0 0 0 0 0 0 0 0 0 0 0 0 0 0 0 0 0 0 127 0" result="hardAlpha" />
            <feOffset dy="4" />
            <feGaussianBlur stdDeviation="4" />
            <feComposite in2="hardAlpha" operator="out" />
            <feColorMatrix type="matrix" values="0 0 0 0 0 0 0 0 0 0 0 0 0 0 0 0 0 0 0.15 0" />
            <feBlend mode="normal" in2="BackgroundImageFix"
                result="effect1_dropShadow_7515_21155" />
            <feBlend mode="normal" in="SourceGraphic" in2="effect1_dropShadow_7515_21155"
                result="shape" />
        </filter>
        <filter id="filter1_d_7515_21155" x="16" y="24" width="220" height="116"
            filterUnits="userSpaceOnUse" color-interpolation-filters="sRGB">
            <feFlood flood-opacity="0" result="BackgroundImageFix" />
            <feColorMatrix in="SourceAlpha" type="matrix"
                values="0 0 0 0 0 0 0 0 0 0 0 0 0 0 0 0 0 0 127 0" result="hardAlpha" />
            <feOffset dy="4" />
            <feGaussianBlur stdDeviation="4" />
            <feComposite in2="hardAlpha" operator="out" />
            <feColorMatrix type="matrix" values="0 0 0 0 0 0 0 0 0 0 0 0 0 0 0 0 0 0 0.15 0" />
            <feBlend mode="normal" in2="BackgroundImageFix"
                result="effect1_dropShadow_7515_21155" />
            <feBlend mode="normal" in="SourceGraphic" in2="effect1_dropShadow_7515_21155"
                result="shape" />
        </filter>
        <linearGradient id="paint0_linear_7515_21155" x1="24" y1="28" x2="238.629" y2="63.2108"
            gradientUnits="userSpaceOnUse">
            <stop stop-color="#242424" />
            <stop offset="1" stop-color="#242424" />
        </linearGradient>
        <linearGradient id="paint1_linear_7515_21155" x1="24" y1="28" x2="232.641" y2="117.136"
            gradientUnits="userSpaceOnUse">
            <stop stop-color="#242424" />
            <stop offset="1" stop-color="#666666" stop-opacity="0" />
        </linearGradient>
    </defs>
</svg>
