<svg width="252" height="348" viewBox="0 0 252 348" fill="none" xmlns="http://www.w3.org/2000/svg">
<g filter="url(#filter0_d_7490_21115)">
<rect x="8" y="4" width="236" height="332" rx="8" fill="#242424"/>
<path d="M30.3086 49.1953C27.3594 49.1953 25.2109 47.457 25.1523 45.0156H28.0039C28.0625 46.1289 29.0781 46.8711 30.3086 46.8711C31.7734 46.8711 32.8086 45.8359 32.8086 44.3711C32.8086 42.8672 31.7539 41.832 30.2695 41.8125C29.2148 41.8125 28.4727 42.2031 28.043 43.0039H25.3867L26.1484 34.8594H34.8594V37.2617H28.5703L28.1797 40.8359H28.2969C28.8242 40.1328 29.8789 39.6445 31.1289 39.6445C33.7266 39.6445 35.6602 41.5781 35.6602 44.293C35.6602 47.1445 33.4922 49.1953 30.3086 49.1953ZM42.4648 49.1953C39.2422 49.1953 36.918 47.4961 36.918 45.1914C36.918 43.4141 38.2852 41.9688 40.043 41.6953V41.5977C38.5195 41.3047 37.4648 40.0156 37.4648 38.4727C37.4648 36.2656 39.5742 34.6641 42.4648 34.6641C45.3555 34.6641 47.4648 36.2656 47.4844 38.4727C47.4648 40.0352 46.3906 41.3047 44.9062 41.5977V41.6953C46.625 41.9688 48.0117 43.4141 48.0117 45.1914C48.0117 47.4961 45.6875 49.1953 42.4648 49.1953ZM42.4648 46.9492C43.9492 46.9492 44.9453 46.1094 44.9453 44.8984C44.9453 43.668 43.9102 42.7695 42.4648 42.7695C41.0195 42.7695 39.9648 43.668 39.9844 44.8984C39.9648 46.1094 40.9609 46.9492 42.4648 46.9492ZM42.4648 40.6992C43.7148 40.6992 44.6133 39.8984 44.6133 38.7656C44.6133 37.6719 43.7344 36.8906 42.4648 36.8906C41.1953 36.8906 40.3359 37.6523 40.3359 38.7656C40.3359 39.8984 41.2148 40.6992 42.4648 40.6992ZM53.2344 41.9297C51.125 41.9297 49.9727 40.3867 49.9727 38.1602C49.9727 35.9141 51.1641 34.3711 53.2344 34.3711C55.3633 34.3711 56.4766 35.9141 56.4961 38.1602C56.4766 40.4062 55.3242 41.9297 53.2344 41.9297ZM53.2344 40.1914C54.0742 40.1914 54.4844 39.3711 54.5039 38.1602C54.4844 36.9492 54.1133 36.1094 53.2344 36.1094C52.3945 36.1094 51.9648 36.9688 51.9648 38.1602C51.9648 39.3711 52.4141 40.1914 53.2344 40.1914ZM62.7656 49.4688C60.6758 49.4688 59.5234 47.9258 59.5234 45.6992C59.5234 43.4531 60.7148 41.9102 62.7656 41.9102C64.8945 41.9102 66.0273 43.4531 66.0469 45.6992C66.0273 47.9453 64.875 49.4688 62.7656 49.4688ZM62.7656 47.7305C63.625 47.7305 64.0352 46.9297 64.0547 45.6992C64.0352 44.4883 63.6641 43.6484 62.7656 43.668C61.9453 43.668 61.5156 44.5078 61.5156 45.6992C61.5156 46.9297 61.9648 47.7305 62.7656 47.7305ZM52.0039 49L61.7305 34.8594H63.918L54.1914 49H52.0039ZM87.1562 33.0234V50.7969H84.7734V41.8906H83.3086V49.9375H80.9648V33.3164H83.3086V39.8789H84.7734V33.0234H87.1562ZM80.0859 35.0352V37.0469H78.9336V44.4297C79.3926 44.3809 79.832 44.332 80.2422 44.2734L80.3789 46.0898C77.6445 46.6758 74.0312 46.7344 71.8242 46.7344L71.5508 44.6836L73.0547 44.6641V37.0469H71.8828V35.0352H80.0859ZM75.3008 44.625L76.707 44.5859V37.0469H75.3008V44.625ZM95.1914 36.0898C95.1914 38.5508 96.4023 40.9922 99.2148 42.0273L97.8281 43.9609C95.9629 43.2285 94.6836 41.832 93.9609 40.0742C93.1797 41.9492 91.8027 43.4141 89.7812 44.1758L88.4531 42.2227C91.3633 41.1875 92.6719 38.6875 92.6719 36.0898V34.0391H95.1914V36.0898ZM103.512 33.043V46.2266H101.031V40.7969H97.9844V38.7852H101.031V37.3594H97.9844V35.3477H101.031V33.043H103.512ZM103.883 48.4922V50.4844H91.6758V44.957H94.1953V48.4922H103.883ZM120.199 33.043V45.8164H117.699V33.043H120.199ZM120.668 48.4922V50.4844H108.285V44.5273H110.805V48.4922H120.668ZM110.453 34.1758C113.188 34.1758 115.316 36.0508 115.316 38.6484C115.316 41.3047 113.188 43.1602 110.453 43.1602C107.719 43.1602 105.59 41.3047 105.59 38.6484C105.59 36.0508 107.719 34.1758 110.453 34.1758ZM110.453 36.3438C109.066 36.3242 108.012 37.2031 108.031 38.6484C108.012 40.1328 109.066 40.9922 110.453 40.9922C111.801 40.9922 112.855 40.1328 112.855 38.6484C112.855 37.2031 111.801 36.3242 110.453 36.3438ZM138.352 39.957V41.9102H122.102V39.957H138.352ZM136.418 37.0273V38.9805H124.133V33.375H136.281V35.3672H126.613V37.0273H136.418ZM136.34 42.9648V47.6133H126.438V48.707H136.809V50.6406H123.996V45.8359H133.879V44.8398H123.977V42.9648H136.34ZM144.648 34.2148C147.461 34.1953 149.57 36.0312 149.57 38.5703C149.57 41.1289 147.461 42.9453 144.648 42.9453C141.836 42.9453 139.707 41.1289 139.707 38.5703C139.707 36.0312 141.836 34.1953 144.648 34.2148ZM144.648 36.3633C143.242 36.3633 142.168 37.1836 142.188 38.5703C142.168 39.9766 143.242 40.7773 144.648 40.7773C146.055 40.7773 147.129 39.9766 147.148 38.5703C147.129 37.1836 146.074 36.3633 144.648 36.3633ZM153.828 33.0234V50.8359H151.348V33.0234H153.828ZM138.965 45.1719C142.129 45.1914 146.523 45.1328 150.332 44.6055L150.527 46.4023C146.582 47.1641 142.363 47.2031 139.258 47.2031L138.965 45.1719ZM166.441 36.0703C166.441 38.375 167.672 40.6602 170.504 41.5977L169.156 43.5508C167.271 42.8574 165.973 41.5488 165.23 39.8984C164.459 41.7539 163.072 43.2188 161.012 43.9609L159.664 42.0078C162.633 41.0312 163.922 38.5898 163.922 36.0508V34.1172H166.441V36.0703ZM174.762 33.043V46.168H172.281V38.8242H168.941V36.8125H172.281V33.043H174.762ZM175.133 48.4922V50.4844H162.926V44.7812H165.445V48.4922H175.133ZM184.223 34.2148V36.207H179.574V37.6719H184.047V39.5664H179.574V41.1289C181.547 41.1191 183.012 41.041 184.652 40.7578L184.906 42.75C182.816 43.1211 181.078 43.1797 178.402 43.1797H177.191V34.2148H184.223ZM191.84 33.043V43.8828H189.477V39.3711H187.934V43.7461H185.609V33.3555H187.934V37.3789H189.477V33.043H191.84ZM191.84 44.625V50.7969H189.359V46.6172H179.555V44.625H191.84ZM24.293 72.957C25.2305 72.957 26.4023 72.9473 27.6523 72.918V70.2617C25.875 69.832 24.7031 68.3965 24.7031 66.4727C24.7031 64.1484 26.4023 62.5859 28.8242 62.5664C31.2461 62.5859 32.9453 64.1484 32.9453 66.4727C32.9453 68.3965 31.7832 69.8223 30.0156 70.2617V72.8203C31.1094 72.752 32.1934 72.6641 33.1406 72.5273L33.3164 74.3242C30.4844 74.8711 26.832 74.9688 24.5859 74.9688L24.293 72.957ZM39.9766 61.0234V78.7969H37.6328V70.1641H36.2266V77.9766H33.9023V61.3164H36.2266V68.0938H37.6328V61.0234H39.9766ZM28.8242 64.5781C27.7305 64.5781 26.9492 65.2812 26.9492 66.4727C26.9492 67.7031 27.7305 68.3477 28.8242 68.3477C29.8984 68.3477 30.6797 67.7031 30.6797 66.4727C30.6797 65.2812 29.8984 64.5781 28.8242 64.5781ZM54.7773 63.3672C54.7773 65.9648 57.082 68.7578 61.1055 69.4414L60.0117 71.5117C56.916 70.8965 54.6113 69.1582 53.4688 66.8633C52.2871 69.1387 49.9824 70.8867 46.9062 71.5117L45.832 69.4414C49.7773 68.7383 52.1016 65.9453 52.1211 63.3672V62.0781H54.7773V63.3672ZM61.6914 74.5586V76.6094H45.4219V74.5586H61.6914ZM76.6992 70.2031V72.1758H64.1211V62.332H76.5625V64.3438H66.6602V66.2188H76.1523V68.1719H66.6602V70.2031H76.6992ZM78.4766 74.6953V76.7266H62.207V74.6953H78.4766ZM93.8555 61.0234V73.1523H91.375V61.0234H93.8555ZM88.1523 62.1172V67.5859H82.3711V69.3242C85.5449 69.3047 87.5762 69.1875 89.8711 68.7969L90.1445 70.7695C87.5664 71.2383 85.2617 71.3359 81.4922 71.3359H79.9297V65.7109H85.6719V64.1094H79.9102V62.1172H88.1523ZM89.1289 72.5664C89.1094 74.4805 90.9648 76.3555 94.7734 76.8242L93.875 78.7383C90.9551 78.3184 88.8652 77.1172 87.8203 75.4375C86.7363 77.127 84.666 78.3379 81.7852 78.7383L80.8477 76.8242C84.6367 76.3555 86.5117 74.4805 86.5117 72.5664V72.2539H89.1289V72.5664ZM100.836 61.5508C103.531 61.5508 105.582 63.2305 105.582 65.6133C105.582 67.957 103.531 69.6562 100.836 69.6562C98.082 69.6562 96.0508 67.957 96.0508 65.6133C96.0508 63.2305 98.082 61.5508 100.836 61.5508ZM100.836 63.582C99.4688 63.582 98.4531 64.3242 98.4727 65.6133C98.4531 66.8828 99.4688 67.6445 100.836 67.6445C102.184 67.6445 103.18 66.8828 103.18 65.6133C103.18 64.3242 102.184 63.582 100.836 63.582ZM110.66 61.0234V69.9297H108.16V61.0234H110.66ZM110.66 70.6719V75.4961H101.207V76.6484H111.148V78.6016H98.7656V73.6797H108.18V72.5859H98.7266V70.6719H110.66ZM126.801 61.0234V67.9961H129.164V70.0469H126.801V78.7969H124.301V61.0234H126.801ZM117.875 62.8398C117.855 67.7227 117.348 71.5312 114.164 75.0273L112.211 73.6406C114.633 71.0234 115.336 68.416 115.492 64.8711H112.992V62.8398H117.875ZM122.797 62.8398C122.797 67.918 122.348 72.3125 119.203 76.1797L117.23 74.793C119.643 71.8242 120.297 68.7773 120.453 64.8711H118.461V62.8398H122.797ZM136.562 72.5469C136.582 70.125 137.227 69.3633 138.398 68.6406C139.238 68.0938 139.883 67.4883 139.883 66.5898C139.883 65.6133 139.121 64.9688 138.184 64.9688C137.266 64.9688 136.426 65.5742 136.387 66.7266H133.613C133.672 63.9727 135.703 62.6641 138.203 62.6641C140.918 62.6641 142.852 64.0898 142.852 66.4922C142.852 68.0938 142.031 69.1289 140.742 69.8906C139.648 70.5547 139.16 71.1797 139.141 72.5469V72.7617H136.562V72.5469ZM137.91 77.1758C136.992 77.1758 136.25 76.4336 136.27 75.5352C136.25 74.6367 136.992 73.9141 137.91 73.9141C138.77 73.9141 139.531 74.6367 139.531 75.5352C139.531 76.4336 138.77 77.1758 137.91 77.1758Z" fill="white"/>
<g filter="url(#filter1_d_7490_21115)">
<path d="M228 210C228 266.333 182.333 312 126 312C69.667 312 24 266.333 24 210C24 153.667 69.667 108 126 108C182.333 108 228 153.667 228 210ZM44.4 210C44.4 255.066 80.9336 291.6 126 291.6C171.066 291.6 207.6 255.066 207.6 210C207.6 164.934 171.066 128.4 126 128.4C80.9336 128.4 44.4 164.934 44.4 210Z" fill="#888888"/>
<path d="M126 118.2C126 112.567 130.578 107.947 136.183 108.51C148.216 109.717 159.965 113.057 170.874 118.401C184.843 125.245 197.062 135.192 206.596 147.483C216.13 159.775 222.726 174.084 225.881 189.316C229.035 204.548 228.664 220.3 224.795 235.366C220.927 250.433 213.664 264.415 203.561 276.244C193.459 288.072 180.785 297.433 166.509 303.611C152.233 309.789 136.733 312.62 121.195 311.887C109.062 311.315 97.1559 308.581 86.0301 303.842C80.8473 301.635 79.0611 295.381 81.775 290.445V290.445C84.4889 285.508 90.6745 283.773 95.9108 285.85C104.265 289.164 113.132 291.084 122.156 291.509C134.587 292.096 146.986 289.831 158.407 284.889C169.828 279.947 179.967 272.458 188.049 262.995C196.131 253.532 201.942 242.346 205.036 230.293C208.131 218.24 208.428 205.638 205.905 193.453C203.381 181.267 198.104 169.82 190.477 159.987C182.849 150.154 173.074 142.196 161.899 136.721C153.786 132.746 145.091 130.157 136.174 129.037C130.584 128.334 126 123.833 126 118.2V118.2Z" fill="#05FFF7"/>
</g>
<path d="M107.905 210.234C104.366 210.234 101.788 208.148 101.717 205.219H105.139C105.209 206.555 106.428 207.445 107.905 207.445C109.663 207.445 110.905 206.203 110.905 204.445C110.905 202.641 109.639 201.398 107.858 201.375C106.592 201.375 105.702 201.844 105.186 202.805H101.998L102.913 193.031H113.366V195.914H105.819L105.35 200.203H105.491C106.123 199.359 107.389 198.773 108.889 198.773C112.006 198.773 114.327 201.094 114.327 204.352C114.327 207.773 111.725 210.234 107.905 210.234ZM122.492 210.234C118.625 210.234 115.836 208.195 115.836 205.43C115.836 203.297 117.477 201.562 119.586 201.234V201.117C117.758 200.766 116.492 199.219 116.492 197.367C116.492 194.719 119.023 192.797 122.492 192.797C125.961 192.797 128.492 194.719 128.516 197.367C128.492 199.242 127.203 200.766 125.422 201.117V201.234C127.484 201.562 129.148 203.297 129.148 205.43C129.148 208.195 126.359 210.234 122.492 210.234ZM122.492 207.539C124.273 207.539 125.469 206.531 125.469 205.078C125.469 203.602 124.227 202.523 122.492 202.523C120.758 202.523 119.492 203.602 119.516 205.078C119.492 206.531 120.688 207.539 122.492 207.539ZM122.492 200.039C123.992 200.039 125.07 199.078 125.07 197.719C125.07 196.406 124.016 195.469 122.492 195.469C120.969 195.469 119.938 196.383 119.938 197.719C119.938 199.078 120.992 200.039 122.492 200.039ZM135.416 201.516C132.884 201.516 131.502 199.664 131.502 196.992C131.502 194.297 132.931 192.445 135.416 192.445C137.97 192.445 139.306 194.297 139.33 196.992C139.306 199.688 137.923 201.516 135.416 201.516ZM135.416 199.43C136.423 199.43 136.916 198.445 136.939 196.992C136.916 195.539 136.47 194.531 135.416 194.531C134.408 194.531 133.892 195.562 133.892 196.992C133.892 198.445 134.431 199.43 135.416 199.43ZM146.853 210.562C144.345 210.562 142.963 208.711 142.963 206.039C142.963 203.344 144.392 201.492 146.853 201.492C149.408 201.492 150.767 203.344 150.791 206.039C150.767 208.734 149.384 210.562 146.853 210.562ZM146.853 208.477C147.884 208.477 148.377 207.516 148.4 206.039C148.377 204.586 147.931 203.578 146.853 203.602C145.869 203.602 145.353 204.609 145.353 206.039C145.353 207.516 145.892 208.477 146.853 208.477ZM133.939 210L145.611 193.031H148.236L136.564 210H133.939Z" fill="#05FFF7"/>
<path d="M102.431 222.457C102.431 224.275 104.044 226.23 106.86 226.709L106.095 228.158C103.928 227.728 102.314 226.511 101.515 224.904C100.688 226.497 99.0742 227.721 96.9209 228.158L96.1689 226.709C98.9307 226.217 100.558 224.262 100.571 222.457V221.555H102.431V222.457ZM107.271 230.291V231.727H95.8818V230.291H107.271ZM117.776 227.242V228.623H108.971V221.732H117.68V223.141H110.749V224.453H117.393V225.82H110.749V227.242H117.776ZM119.02 230.387V231.809H107.631V230.387H119.02ZM129.785 220.816V229.307H128.049V220.816H129.785ZM125.793 221.582V225.41H121.746V226.627C123.968 226.613 125.39 226.531 126.996 226.258L127.188 227.639C125.383 227.967 123.77 228.035 121.131 228.035H120.037V224.098H124.057V222.977H120.024V221.582H125.793ZM126.477 228.896C126.463 230.236 127.762 231.549 130.428 231.877L129.799 233.217C127.755 232.923 126.292 232.082 125.561 230.906C124.802 232.089 123.353 232.937 121.336 233.217L120.68 231.877C123.332 231.549 124.645 230.236 124.645 228.896V228.678H126.477V228.896ZM138.669 222.949C138.669 224.562 139.531 226.162 141.513 226.818L140.57 228.186C139.25 227.7 138.341 226.784 137.822 225.629C137.282 226.928 136.311 227.953 134.869 228.473L133.925 227.105C136.003 226.422 136.906 224.713 136.906 222.936V221.582H138.669V222.949ZM144.494 220.83V230.018H142.757V224.877H140.419V223.469H142.757V220.83H144.494ZM144.753 231.645V233.039H136.208V229.047H137.972V231.645H144.753ZM156.599 222.389V223.783H146.249V222.389H150.556V220.939H152.278V222.389H156.599ZM157.146 230.592V231.986H145.757V230.592H150.556V229.156C148.437 228.979 147.151 228.104 147.165 226.736C147.151 225.232 148.792 224.316 151.417 224.33C154.001 224.316 155.655 225.232 155.655 226.736C155.655 228.104 154.363 228.979 152.278 229.156V230.592H157.146ZM151.417 225.684C149.804 225.684 148.942 226.025 148.956 226.736C148.942 227.475 149.804 227.803 151.417 227.803C152.989 227.803 153.864 227.475 153.864 226.736C153.864 226.025 152.989 225.684 151.417 225.684Z" fill="#05FFF7"/>
</g>
<defs>
<filter id="filter0_d_7490_21115" x="0" y="0" width="252" height="348" filterUnits="userSpaceOnUse" color-interpolation-filters="sRGB">
<feFlood flood-opacity="0" result="BackgroundImageFix"/>
<feColorMatrix in="SourceAlpha" type="matrix" values="0 0 0 0 0 0 0 0 0 0 0 0 0 0 0 0 0 0 127 0" result="hardAlpha"/>
<feOffset dy="4"/>
<feGaussianBlur stdDeviation="4"/>
<feComposite in2="hardAlpha" operator="out"/>
<feColorMatrix type="matrix" values="0 0 0 0 0 0 0 0 0 0 0 0 0 0 0 0 0 0 0.15 0"/>
<feBlend mode="normal" in2="BackgroundImageFix" result="effect1_dropShadow_7490_21115"/>
<feBlend mode="normal" in="SourceGraphic" in2="effect1_dropShadow_7490_21115" result="shape"/>
</filter>
<filter id="filter1_d_7490_21115" x="16" y="104" width="220" height="220" filterUnits="userSpaceOnUse" color-interpolation-filters="sRGB">
<feFlood flood-opacity="0" result="BackgroundImageFix"/>
<feColorMatrix in="SourceAlpha" type="matrix" values="0 0 0 0 0 0 0 0 0 0 0 0 0 0 0 0 0 0 127 0" result="hardAlpha"/>
<feOffset dy="4"/>
<feGaussianBlur stdDeviation="4"/>
<feComposite in2="hardAlpha" operator="out"/>
<feColorMatrix type="matrix" values="0 0 0 0 0 0 0 0 0 0 0 0 0 0 0 0 0 0 0.04 0"/>
<feBlend mode="normal" in2="BackgroundImageFix" result="effect1_dropShadow_7490_21115"/>
<feBlend mode="normal" in="SourceGraphic" in2="effect1_dropShadow_7490_21115" result="shape"/>
</filter>
</defs>
</svg>
