<svg width="328" height="48" viewBox="0 0 328 48" fill="none" xmlns="http://www.w3.org/2000/svg">
<rect width="328" height="48" rx="8" fill="#FFE812"/>
<path d="M16 24C16 17.3726 21.3726 12 28 12C34.6274 12 40 17.3726 40 24C40 30.6274 34.6274 36 28 36C21.3726 36 16 30.6274 16 24Z" fill="#FFE812"/>
<path d="M28 17.5C23.5817 17.5 20 20.3241 20 23.8077C20 26.0599 21.4974 28.0361 23.7499 29.1521C23.6273 29.5747 22.9624 31.8709 22.9359 32.0513C22.9359 32.0513 22.92 32.1868 23.0078 32.2385C23.0956 32.2901 23.1988 32.25 23.1988 32.25C23.4504 32.2149 26.1175 30.3415 26.5791 30.0162C27.0403 30.0815 27.5151 30.1154 28 30.1154C32.4183 30.1154 36 27.2914 36 23.8077C36 20.3241 32.4183 17.5 28 17.5Z" fill="#381F1F"/>
<path d="M139.845 18.75C139.83 22.875 138.564 26.5469 133.455 29.0625L132.642 27.9531C135.173 26.7109 136.681 25.2031 137.517 23.4219L132.939 23.8594L132.72 22.5781L137.97 22.2188C138.181 21.5078 138.306 20.75 138.361 19.9531H133.455V18.75H139.845ZM143.47 17.3281V22.9219H145.642V24.1406H143.47V31.3125H141.986V17.3281H143.47ZM153.273 18.75C153.258 22.875 151.992 26.5469 146.883 29.0625L146.07 27.9531C148.602 26.7109 150.109 25.2031 150.945 23.4219L146.367 23.8594L146.148 22.5781L151.398 22.2188C151.609 21.5078 151.734 20.75 151.789 19.9531H146.883V18.75H153.273ZM156.898 17.3281V22.9219H159.07V24.1406H156.898V31.3125H155.414V17.3281H156.898ZM165.795 18.1719C168.795 18.1875 170.967 19.6562 170.967 21.8906C170.967 23.9922 169.147 25.375 166.53 25.5938V28.3438H172.233V29.5781H159.42V28.3438H165.061V25.5938C162.459 25.375 160.639 23.9922 160.639 21.8906C160.639 19.6562 162.811 18.1875 165.795 18.1719ZM165.795 19.3906C163.639 19.375 162.077 20.375 162.077 21.8906C162.077 23.4688 163.639 24.4375 165.795 24.4531C167.967 24.4375 169.53 23.4688 169.53 21.8906C169.53 20.375 167.967 19.375 165.795 19.3906ZM185.661 28.4062V29.6562H172.848V28.4062H178.489V25.9531H174.411V21.5H182.63V19.5312H174.38V18.3125H184.098V22.6875H175.88V24.7344H184.427V25.9531H179.958V28.4062H185.661ZM202.595 28.4062V29.6562H189.783V28.4062H195.423V25.9531H191.345V21.5H199.564V19.5312H191.314V18.3125H201.033V22.6875H192.814V24.7344H201.361V25.9531H196.892V28.4062H202.595ZM214.305 18.75V20.25C214.305 22.0625 214.305 24.0312 213.789 27.0156L212.273 26.875C212.836 24.0781 212.836 22.0156 212.836 20.25V19.9688H204.586V18.75H214.305ZM215.977 28.1094V29.3438H203.211V28.1094H215.977ZM228.248 17.3438V27.5156H226.764V17.3438H228.248ZM228.67 29.8281V31.0312H219.092V26.4844H220.592V29.8281H228.67ZM220.655 18.2812C222.764 18.2812 224.373 19.7188 224.373 21.75C224.373 23.8125 222.764 25.2344 220.655 25.2344C218.545 25.2344 216.92 23.8125 216.92 21.75C216.92 19.7188 218.545 18.2812 220.655 18.2812ZM220.655 19.5781C219.342 19.5781 218.373 20.4688 218.373 21.75C218.373 23.0625 219.342 23.9375 220.655 23.9375C221.936 23.9375 222.92 23.0625 222.92 21.75C222.92 20.4688 221.936 19.5781 220.655 19.5781Z" fill="black"/>
</svg>
