<svg width="81" height="18" viewBox="0 0 81 18" fill="none" xmlns="http://www.w3.org/2000/svg">
<path d="M0 0.434509H2.94939L8.66799 10.0213L14.3865 0.434509H17.336V17.5655H13.6328V8.17056L9.78766 14.7499H7.54831L3.70313 8.17056V17.5655H0V0.434509Z" fill="black"/>
<path d="M24.7 16.832C23.3346 16.0533 22.2695 14.9812 21.4939 13.6157C20.7183 12.2502 20.336 10.7097 20.336 9C20.336 7.29028 20.7238 5.75549 21.4939 4.38433C22.2695 3.01881 23.3346 1.94671 24.7 1.16803C26.0655 0.389342 27.5948 0 29.288 0C30.9812 0 32.5105 0.389342 33.876 1.16803C35.2414 1.94671 36.3065 3.01881 37.0821 4.38433C37.8577 5.74984 38.24 7.29028 38.24 9C38.24 10.7097 37.8522 12.2445 37.0821 13.6157C36.3065 14.9812 35.2414 16.0533 33.876 16.832C32.5105 17.6107 30.9812 18 29.288 18C27.5948 18 26.0655 17.6107 24.7 16.832ZM31.9752 13.8357C32.7781 13.3618 33.4008 12.6959 33.8541 11.8495C34.3075 11.0031 34.5369 10.0552 34.5369 9C34.5369 7.94483 34.3075 6.97994 33.8541 6.13918C33.4008 5.29843 32.7727 4.63824 31.9752 4.16426C31.1723 3.69028 30.282 3.44765 29.288 3.44765C28.2939 3.44765 27.4036 3.68464 26.6007 4.16426C25.7979 4.63824 25.1752 5.29843 24.7164 6.13918C24.2631 6.97994 24.0337 7.93354 24.0337 9C24.0337 10.0665 24.2631 11.0031 24.7164 11.8495C25.1697 12.6959 25.7979 13.3618 26.6007 13.8357C27.4036 14.3097 28.2939 14.5524 29.288 14.5524C30.282 14.5524 31.1723 14.3154 31.9752 13.8357Z" fill="black"/>
<path d="M41.24 0.431641H47.6686C49.471 0.431641 51.044 0.792769 52.3877 1.51503C53.7313 2.23728 54.7636 3.24731 55.4791 4.53948C56.2001 5.83728 56.5551 7.32694 56.5551 9.00844C56.5551 10.6899 56.1946 12.1796 55.4791 13.4774C54.7581 14.7752 53.7313 15.7796 52.3877 16.4962C51.044 17.2128 49.471 17.5683 47.6686 17.5683H41.24V0.431641ZM47.7342 14.1771C49.3345 14.1771 50.5907 13.7257 51.4974 12.8229C52.404 11.92 52.8628 10.6448 52.8628 9.00844C52.8628 7.37208 52.4095 6.09684 51.4974 5.18274C50.5907 4.27427 49.3345 3.81722 47.7342 3.81722H44.9486V14.1771H47.7342Z" fill="black"/>
<path d="M63.2582 0.434509V17.5655H59.5551V0.434509H63.2582Z" fill="black"/>
<path d="M70.5512 0.437283L73.7683 5.83728H76.7177V0.437283H80.4208V17.5683H73.7464C72.3646 17.5683 71.1684 17.3257 70.1634 16.8404C69.1584 16.3551 68.3938 15.6724 67.864 14.7921C67.3342 13.9119 67.072 12.8793 67.072 11.7C67.072 10.5207 67.3342 9.49371 67.853 8.6191C68.3774 7.74449 69.1256 7.06738 70.1033 6.5934L66.2582 0.431641H70.5512V0.437283ZM76.7177 9.22286H73.9103C72.9217 9.22286 72.1516 9.43728 71.5999 9.86612C71.0483 10.295 70.7752 10.9044 70.7752 11.7056C70.7752 12.5069 71.0483 13.1163 71.5999 13.5451C72.1516 13.974 72.9217 14.1884 73.9103 14.1884H76.7177V9.2285V9.22286Z" fill="black"/>
</svg>
