<svg width="28" height="16" viewBox="0 0 28 16" fill="none" xmlns="http://www.w3.org/2000/svg">
<path d="M14.0877 2.47261C16.2003 0.195459 18.8735 -0.265341 21.7412 0.123879C28.3801 1.02758 29.3576 8.17669 26.4528 11.8631C24.8452 13.9031 22.6863 15.2005 20.0965 15.894C20.2911 15.724 20.4811 15.545 20.6803 15.3839C24.3727 12.3865 25.5772 6.88824 23.3396 2.90657C22.9736 2.2534 22.3805 1.64496 21.7412 1.2289C19.9622 0.056772 17.9098 0.50415 17.0806 2.40998C16.4551 3.83712 16.0752 5.43873 15.964 6.98666C15.7787 9.55014 15.9038 12.1315 15.8945 14.7039C15.8945 15.0887 15.8945 15.469 15.8945 15.9298H12.4431C12.4431 15.5137 12.4523 15.1021 12.4431 14.695C12.3736 11.4918 12.3458 8.28406 12.1929 5.0853C12.1512 4.23081 11.8315 3.34948 11.4563 2.56209C10.3258 0.186511 7.70365 -0.0774415 6.02656 1.99839C4.5811 3.78791 4.2012 5.89953 4.34019 8.08721C4.5394 11.277 5.96169 13.8897 8.87576 15.9969C7.18477 15.9969 5.4984 16.0326 3.81204 15.8626C2.8623 15.7687 2.12567 14.9768 1.61143 14.2655C0.342023 12.5252 -0.162946 10.4136 0.0455323 8.30643C0.124291 7.52799 0.291068 6.75402 0.545875 6.0069C0.763619 5.36715 1.04159 4.74977 1.38442 4.1637C3.02909 1.32285 6.28136 -0.35929 9.65872 0.128352C10.0988 0.190985 10.5343 0.293882 10.9513 0.43257C11.8639 0.736787 12.7071 1.21996 13.4021 1.86418C13.5827 2.03418 13.7773 2.19524 14.0924 2.47261H14.0877Z" fill="#05FFF7"/>
</svg>
