<svg width="328" height="48" viewBox="0 0 328 48" fill="none" xmlns="http://www.w3.org/2000/svg">
<rect x="0.5" y="0.5" width="327" height="47" rx="7.5" fill="url(#paint0_linear_7430_20311)"/>
<rect x="0.5" y="0.5" width="327" height="47" rx="7.5" stroke="url(#paint1_linear_7430_20311)"/>
<path d="M28.0721 19.509C29.8074 17.6588 32.0032 17.2844 34.3589 17.6007C39.8122 18.3349 40.6152 24.1436 38.2291 27.1388C36.9086 28.7963 35.1352 29.8504 33.0079 30.4138C33.1677 30.2757 33.3237 30.1303 33.4874 29.9995C36.5204 27.564 37.5099 23.0967 35.6718 19.8616C35.3711 19.3309 34.884 18.8365 34.3589 18.4985C32.8975 17.5461 31.2117 17.9096 30.5305 19.4581C30.0167 20.6177 29.7046 21.919 29.6133 23.1767C29.4611 25.2595 29.5638 27.3569 29.5562 29.4469C29.5562 29.7596 29.5562 30.0685 29.5562 30.4429H26.7211C26.7211 30.1049 26.7287 29.7705 26.7211 29.4397C26.664 26.8371 26.6412 24.2308 26.5156 21.6318C26.4813 20.9375 26.2187 20.2214 25.9105 19.5817C24.9819 17.6515 22.828 17.4371 21.4504 19.1237C20.2631 20.5777 19.951 22.2934 20.0652 24.0709C20.2288 26.6626 21.3971 28.7854 23.7908 30.4974C22.4018 30.4974 21.0165 30.5265 19.6313 30.3884C18.8512 30.3121 18.2461 29.6687 17.8237 29.0907C16.7809 27.6767 16.3662 25.961 16.5374 24.249C16.6021 23.6165 16.7391 22.9876 16.9484 22.3806C17.1273 21.8608 17.3556 21.3592 17.6372 20.883C18.9882 18.5748 21.6597 17.2081 24.4339 17.6043C24.7955 17.6552 25.1532 17.7388 25.4957 17.8515C26.2454 18.0986 26.938 18.4912 27.5088 19.0146C27.6573 19.1528 27.8171 19.2836 28.0759 19.509H28.0721Z" fill="#05FFF7"/>
<path d="M144.158 17.3281V31.3594H142.673V17.3281H144.158ZM136.673 18.375C138.752 18.375 140.283 20.2812 140.283 23.2812C140.283 26.2969 138.752 28.2031 136.673 28.2031C134.564 28.2031 133.048 26.2969 133.048 23.2812C133.048 20.2812 134.564 18.375 136.673 18.375ZM136.673 19.7031C135.377 19.7031 134.486 21.0781 134.486 23.2812C134.486 25.5 135.377 26.875 136.673 26.875C137.955 26.875 138.845 25.5 138.845 23.2812C138.845 21.0781 137.955 19.7031 136.673 19.7031ZM151.898 18.9062V22.5469H153.773V17.5938H155.195V30.6406H153.773V23.7656H151.898V27.6406H146.461V18.9062H151.898ZM147.867 20.0781V26.4531H150.508V20.0781H147.867ZM158.039 17.3281V31.3281H156.617V17.3281H158.039ZM163.389 17.7969C165.498 17.8125 167.045 19.1094 167.061 20.9375C167.045 22.7812 165.498 24.0625 163.389 24.0625C161.264 24.0625 159.702 22.7812 159.702 20.9375C159.702 19.1094 161.264 17.8125 163.389 17.7969ZM163.389 19.0469C162.092 19.0312 161.139 19.7969 161.155 20.9375C161.139 22.0938 162.092 22.8594 163.389 22.8594C164.67 22.8594 165.623 22.0938 165.623 20.9375C165.623 19.7969 164.67 19.0312 163.389 19.0469ZM171.03 17.3281V24.4531H169.545V17.3281H171.03ZM171.03 25.0938V28.625H163.311V29.9688H171.498V31.1562H161.873V27.5156H169.561V26.2812H161.827V25.0938H171.03ZM185.661 28.4062V29.6562H172.848V28.4062H178.489V25.9531H174.411V21.5H182.63V19.5312H174.38V18.3125H184.098V22.6875H175.88V24.7344H184.427V25.9531H179.958V28.4062H185.661ZM202.595 28.4062V29.6562H189.783V28.4062H195.423V25.9531H191.345V21.5H199.564V19.5312H191.314V18.3125H201.033V22.6875H192.814V24.7344H201.361V25.9531H196.892V28.4062H202.595ZM214.305 18.75V20.25C214.305 22.0625 214.305 24.0312 213.789 27.0156L212.273 26.875C212.836 24.0781 212.836 22.0156 212.836 20.25V19.9688H204.586V18.75H214.305ZM215.977 28.1094V29.3438H203.211V28.1094H215.977ZM228.248 17.3438V27.5156H226.764V17.3438H228.248ZM228.67 29.8281V31.0312H219.092V26.4844H220.592V29.8281H228.67ZM220.655 18.2812C222.764 18.2812 224.373 19.7188 224.373 21.75C224.373 23.8125 222.764 25.2344 220.655 25.2344C218.545 25.2344 216.92 23.8125 216.92 21.75C216.92 19.7188 218.545 18.2812 220.655 18.2812ZM220.655 19.5781C219.342 19.5781 218.373 20.4688 218.373 21.75C218.373 23.0625 219.342 23.9375 220.655 23.9375C221.936 23.9375 222.92 23.0625 222.92 21.75C222.92 20.4688 221.936 19.5781 220.655 19.5781Z" fill="#05FFF7"/>
<defs>
<linearGradient id="paint0_linear_7430_20311" x1="0" y1="0" x2="328" y2="48" gradientUnits="userSpaceOnUse">
<stop stop-color="#242424"/>
<stop offset="1" stop-color="#242424" stop-opacity="0"/>
</linearGradient>
<linearGradient id="paint1_linear_7430_20311" x1="0" y1="0" x2="328" y2="48" gradientUnits="userSpaceOnUse">
<stop stop-color="#242424"/>
<stop offset="1" stop-color="#666666" stop-opacity="0.1"/>
</linearGradient>
</defs>
</svg>
